/* XPM */
static char *_077b04eabb34645e3081c0bfe8aa0620mhXEhsOmnjRd0fv[] = {
/* columns rows colors chars-per-pixel */
"32 32 136 2 ",
"   c #090703",
".  c #0D0A03",
"X  c #0D0C0A",
"o  c #130E03",
"O  c #100E09",
"+  c #161003",
"@  c #1C1504",
"#  c #14110C",
"$  c #1A160C",
"%  c #1F1A0C",
"&  c #131312",
"*  c #1A1A19",
"=  c #201704",
"-  c #241A05",
";  c #291E06",
":  c #241C0A",
">  c #201F1C",
",  c #2E2207",
"<  c #2D220A",
"1  c #312407",
"2  c #362807",
"3  c #332508",
"4  c #362809",
"5  c #3A2C0A",
"6  c #2C2515",
"7  c #2D281E",
"8  c #342A13",
"9  c #3C2F10",
"0  c #30291A",
"q  c #3E3113",
"w  c #3D331B",
"e  c #232222",
"r  c #292620",
"t  c #272728",
"y  c #2D2D2D",
"u  c #3C3423",
"i  c #37342D",
"p  c #3B362A",
"a  c #3D382E",
"s  c #363433",
"d  c #3A3730",
"f  c #3B3B3A",
"g  c #40300D",
"h  c #423413",
"j  c #473916",
"k  c #443718",
"l  c #46391B",
"z  c #4B3D1D",
"x  c #413823",
"c  c #4C3F21",
"v  c #493F29",
"b  c #433F35",
"n  c #4E401F",
"m  c #4E4122",
"M  c #524424",
"N  c #544728",
"B  c #56492B",
"V  c #5A4C2D",
"C  c #42403B",
"Z  c #514733",
"A  c #5B4F34",
"S  c #5D5135",
"D  c #615437",
"F  c #615539",
"G  c #675A3F",
"H  c #685B3F",
"J  c #444444",
"K  c #4C4C4C",
"L  c #534E43",
"P  c #585142",
"I  c #56544D",
"U  c #555553",
"Y  c #5E5A50",
"T  c #5C5B5B",
"R  c #605742",
"E  c #645A44",
"W  c #695D41",
"Q  c #635C4B",
"!  c #615F5A",
"~  c #71654B",
"^  c #6F685B",
"/  c #706753",
"(  c #726852",
")  c #786D54",
"_  c #77705E",
"`  c #7B725D",
"'  c #626263",
"]  c #6F6F6F",
"[  c #746E60",
"{  c #76736C",
"}  c #7B776D",
"|  c #777674",
" . c gray49",
".. c #817761",
"X. c #847A64",
"o. c #847D6E",
"O. c #897F69",
"+. c #8E8570",
"@. c #82807C",
"#. c #888378",
"$. c #908773",
"%. c #918977",
"&. c #958D7C",
"*. c #988F7C",
"=. c #98907D",
"-. c #818181",
";. c #8F8F8E",
":. c #9B9382",
">. c #95928B",
",. c #9E988C",
"<. c #939393",
"1. c #989794",
"2. c #A19E9A",
"3. c #A9A394",
"4. c #A9A59A",
"5. c #A4A4A4",
"6. c gray66",
"7. c #A8A8A9",
"8. c #B1ACA0",
"9. c #B3B1AE",
"0. c #B7B4AE",
"q. c #BAB6AC",
"w. c #BEB9AD",
"e. c #B7B7B7",
"r. c #B8B7B4",
"t. c #C0BDB5",
"y. c #C2BFBA",
"u. c #C0C0C0",
"i. c #D4D1CB",
"p. c #D5D2CB",
"a. c #D7D5CF",
"s. c #DBD9D6",
"d. c #DCDAD7",
"f. c #E4E3E0",
"g. c #E6E4E1",
"h. c #E9E9E8",
/* pixels */
" .e.u.u.u.u.u.u.y.u.u.u.u.u.u.u.u.u.u.u.u.u.u.u.u.u.y.u.u.u.5.T ",
"6.h.g.a.p.p.p.p.p.p.i.i.i.i.i.i.i.i.i.i.i.i.i.i.i.i.i.i.i.i.9.! ",
"6.f.w.+.X.X.X.X.X.X.X.X.X.X.X.X.X.X.X.X.X.X.X.X.X.X.X.X.X.X./ d ",
"6.s.:.N z N M k g h j c B c h h h l N N j h h h c B M k h h 9 = ",
"6.s.=.N G %.[ u - 1 z ) $.Q 6 ; 3 V X.o.Z ; ; h G $._ u - 3 3 @ ",
"6.s.=.N ..w.1.s o ; N :.y.| > @ 5 W 8.r.U O = k ..t.1.s o ; 3 @ ",
"6.s.=.M E  .' e . ; c ^ o.K & o 3 N } | f X = 9 R o.' e . ; 3 @ ",
"6.s.&.z 8 7 * X X ; 5 7 e *   o 1 8 r > X   = 4 8 t * X . ; 3 @ ",
"6.d.*.z ; @ o o @ 1 4 - o o o - 2 3 @ o o o , 5 < + o o @ 1 4 @ ",
"6.d.=.z 2 3 1 1 1 2 5 4 1 1 3 3 2 3 3 1 1 1 3 5 4 4 1 , 3 4 1 @ ",
"7.d.=.M c D B q 3 2 h N F c 4 3 5 z A S l 3 3 5 m F B q 3 3 4 o ",
"7.d.*.N / 3.#.p = 1 n O.2._ 6 - 2 D :.,.L : ; h ( 3.#.p @ 1 5 @ ",
"7.s.*.N ` q.;.y o ; N &.r.] * + 5 W 4.7.K O - h ` r.;.s o ; 5 @ ",
"7.s.=.M Z ! K * . ; k P T f O o 1 c Y U t . @ 9 Z ! J * . ; 1 @ ",
"5.s.=.c < $ X   o ; 4 : # O   @ 3 3 % #   . - 5 < $ O . o , 1 @ ",
"6.s.=.z < = @ @ - 3 4 ; @ @ @ ; 5 3 - @ @ = < 3 , - o @ - 3 1 @ ",
"6.s.*.z 5 5 8 5 4 4 g 5 9 4 4 2 3 5 g 5 4 4 4 5 g 5 9 4 4 4 2 @ ",
"6.s.*.M S ) E w ; 4 j H ) A 8 , 5 N ~ ( v < 3 g S ) E w < 3 4 @ ",
"6.s.*.N ..q.>.d @ ; N &.r.{ > @ 4 W 3.8.I $ - h ..q.>.a + , 1 @ ",
"6.s.*.N ~ 2. .t o ; c o.2.' * + 3 F >.<.J X @ h ~ 2. .t o ; 3 @ ",
"6.d.*.M x b y & o ; g b b e X o 3 w b f *   = 4 x C y & . ; 3 @ ",
"7.d.*.z ; o O . o ; 4 = O . . @ 3 3 @ . . . ; 4 < + . . + , 3 @ ",
"7.d.*.z 1 ; ; ; ; 4 4 1 ; - ; 1 3 4 , ; - ; 3 5 3 - - - , 4 3 @ ",
"7.d.*.z h c l 5 2 5 g j c h 4 4 5 h z z q 4 4 5 k m l 5 4 4 4 @ ",
"7.s.=.N W +.` w - 1 z ) %.Q 6 ; 5 B O.o.Z : , h H $.` u - 1 1 @ ",
"7.s.*.N } t.1.d o ; N :.y.| > @ 3 W 8.r.U # = k ..t.1.s o < 3 @ ",
"7.s.*.M Y o.' e . ; z ^ o.K & + 4 B } | s X = 5 R @.' e . - 3 @ ",
"7.s.*.c 8 r * X O ; 4 0 e *   O 3 8 r > O   - 4 8 r * X . , 3 @ ",
"6.s.&.z ; o o o = , 4 - + o o - 4 4 @ o o + ; 2 , + o o @ 1 1 @ ",
"6.s.*.c 3 1 1 1 3 4 5 2 1 ; 1 4 4 4 1 1 , , 4 5 4 1 1 , 2 4 4 @ ",
"-.6.` 9 1 1 , 1 , , , 1 1 , 1 , , 1 1 , 1 1 , 1 , , 1 , , , - + ",
"f K i $ o + o o + + + + + o + + o + + o + + o + + + + + + + o . "
};
