/* XPM */
static char *_b52849695a248a0d7b8b073fc7664ddrYta8oAchd7dDSY1[] = {
/* columns rows colors chars-per-pixel */
"64 64 177 2 ",
"   c #C16C2C",
".  c #BE6A2B",
"X  c #B05E27",
"o  c #BF6A2B",
"O  c #BF6A2C",
"+  c #AD5C27",
"@  c #AB5A26",
"#  c #BC672B",
"$  c #AB5B28",
"%  c #88482D",
"&  c #A65727",
"*  c #AE5C27",
"=  c #AC5B26",
"-  c #A95927",
";  c #AD5B27",
":  c #AB5B27",
">  c #AB5A27",
",  c #B9662B",
"<  c #98502A",
"1  c #A95A27",
"2  c #A85927",
"3  c #AA5A26",
"4  c #A85926",
"5  c #AA5926",
"6  c #A85826",
"7  c #A95926",
"8  c #9B5128",
"9  c #995029",
"0  c #994F29",
"q  c #A75727",
"w  c #944C2A",
"e  c #964E29",
"r  c #BC682C",
"t  c #9C532B",
"y  c #B7652C",
"u  c #99502A",
"i  c #974E29",
"p  c #A85827",
"a  c #A35527",
"s  c #934C2A",
"d  c #954E29",
"f  c #BB682C",
"g  c #9D532B",
"h  c #B9662C",
"j  c #9B512A",
"k  c #A55727",
"l  c #A75827",
"z  c #AC5C28",
"x  c #AE5D27",
"c  c #AC5B27",
"v  c #C06B2C",
"b  c #9A512B",
"n  c #AD5C28",
"m  c #AC5A26",
"M  c #B6652C",
"N  c #AA5B28",
"B  c #B9672D",
"V  c #B4632B",
"C  c #AA5A28",
"Z  c #B9672C",
"A  c #BA672D",
"S  c #A55829",
"D  c #87472D",
"F  c #A65829",
"G  c #B7662C",
"H  c #A85928",
"J  c #8B4B2E",
"K  c #8A4A2E",
"L  c #8C4C2F",
"P  c #86482D",
"I  c #85472F",
"U  c #88492E",
"Y  c #8C4B2E",
"T  c #894A2E",
"R  c #82452E",
"E  c #86472D",
"W  c #89492E",
"Q  c #87482D",
"!  c #B4632C",
"~  c #A75929",
"^  c #B5632B",
"/  c #BA662B",
"(  c #9A522B",
")  c #9B5229",
"_  c #984F29",
"`  c #9C5229",
"'  c #AA5A27",
"]  c #974F29",
"[  c #944D29",
"{  c #A75826",
"}  c #9A512A",
"|  c #A95A28",
" . c #954D2A",
".. c #BB672A",
"X. c #97502A",
"o. c #BA672B",
"O. c #AC5B28",
"+. c #9C522A",
"@. c #A85929",
"#. c #914C2A",
"$. c #84462D",
"%. c #B5642B",
"&. c #B6652D",
"*. c #A85A27",
"=. c #B8662C",
"-. c #A65827",
";. c #84462E",
":. c #84472F",
">. c #814529",
",. c #7C4128",
"<. c #83462E",
"1. c #7F4428",
"2. c #87482C",
"3. c #7F4328",
"4. c #8A4B2E",
"5. c #7D4228",
"6. c #B6642B",
"7. c #A35728",
"8. c #85472D",
"9. c #B15E27",
"0. c #B8652C",
"q. c #BB692D",
"w. c #BD692B",
"e. c #B36028",
"r. c #9A502A",
"t. c #BA672C",
"y. c #B3632C",
"u. c #A45728",
"i. c #A25628",
"p. c #8C4C2E",
"a. c #83462D",
"s. c #7E4328",
"d. c #794028",
"f. c #7A4129",
"g. c #784028",
"h. c #B2622C",
"j. c #A75928",
"k. c #A35627",
"l. c #A25527",
"z. c #A75828",
"x. c #B4642C",
"c. c #B7662D",
"v. c #A65828",
"b. c #B1612C",
"n. c #B7652D",
"m. c #A55728",
"M. c #8F4A29",
"N. c #81442D",
"B. c #7C422E",
"V. c #9B5129",
"C. c #9C5128",
"Z. c #9A5029",
"A. c #8B4A2E",
"S. c #B6642C",
"D. c #954E2B",
"F. c #BA662A",
"G. c #BD682B",
"H. c #BC682B",
"J. c #AF5E27",
"K. c #944D2A",
"L. c #974F2A",
"P. c #8A4A2D",
"I. c #B8662D",
"U. c #8F4B2A",
"Y. c #7B4129",
"T. c #783F28",
"R. c #8C4B2F",
"E. c #763E28",
"W. c #A15528",
"Q. c #904B2A",
"!. c #7D422E",
"~. c #85482F",
"^. c #80442D",
"/. c #733C28",
"(. c #713B28",
"). c #6F3A28",
"_. c white",
/* pixels */
"    . X o O + @ @ + O o X # X o o X o   O $ % & * o   o X o o X .   . X o O + @ @ + O o X # X o o X o   O $ % & * o   o X o o * ",
"* * * = * * @ @ @ @ * + - ; - : + - > : X , < 1 - > : > - + : - + * * = * * @ @ @ @ * + - ; - : + - > : X , < 1 - > : > - + : 2 ",
"3 4 5 6 6 5 7 @ @ @ @ 4 8 & 9 0 q 9 w e : r t y u e i e 9 q 0 0 6 7 5 6 6 5 7 @ @ @ @ 4 8 & 9 0 q 9 w e : r t y u e i e 9 q 9 e ",
"6 8 & 9 9 & 8 7 @ @ @ @ 7 5 & p 6 a s d : f g h j a k l & p 6 4 6 8 & 9 9 & 8 7 @ @ @ @ 7 5 & p 6 a s d : f g h j a k l & p 6 6 ",
"3 7 5 6 6 5 7 @ @ @ @ @ @ 4 8 & 9 e e & X r g r z 0 9 q 0 0 7 @ @ 7 5 6 6 5 7 @ @ @ @ @ @ 4 8 & 9 e e & X r g r z 0 9 q 0 0 7 @ ",
"* = * x x * = * = * * = * * c * c : c X v r b r v n 7 + c c * = * = * x x * = * = * * = * * c * c : c X v r b r v n 7 + c c * m ",
"M N y B B y N V N y y C y B Z Z Z Z Z B A S D F A G N y B B y N V N y B B y N V N y y C y B Z Z Z Z Z B A S D F A G N y B B y H ",
"J % J K L L K J P I U K Y K L L L K L L T U R E W W Q W T T W Q J % J K L L K J P I U K Y K L L L K L L T U R E W W Q W T T W Q ",
"M N V N y Z B y S D S G ! ~ ! B ! ~ ! M N ^ H k k k k k k k k H ^ N V N y Z B y S D S G ! ~ ! B ! ~ ! M N ^ H k k k k k k k k & ",
"+ 5 + - > : c X / ( / z ) _ ` ' ` ] ` c = * m @ m @ @ @ @ @ @ m + 5 + - > : c X / ( / z ) _ ` ' ` ] ` c = * m @ m @ @ @ @ @ @ @ ",
"6 8 & 9 e [ e : r t y j a k 6 { k l & 5 @ 7 3 6 6 @ @ @ @ @ @ @ 4 8 & 9 e [ e : r t y j a k 6 { k l & 5 @ 7 3 6 6 @ @ @ @ @ @ @ ",
"@ 7 5 & a s d : r } |  .w 9 l 9 9 q 8 7 7 8 & 9 0 7 @ @ @ @ @ @ @ 7 5 & a s d : r } |  .w 9 l 9 9 q 8 7 7 8 & 9 0 7 @ @ @ @ @ @ ",
"@ @ 7 9 e e & X / t y < s a 6 6 6 3 4 @ @ 7 3 6 6 @ @ @ @ @ @ @ @ @ 7 9 e e & X / t y < s a 6 6 6 3 4 @ @ 7 3 6 6 @ @ @ @ @ @ @ ",
"x x * c : c X ..C X.o.O.] u +.c * = * * = * m @ @ m * x x x * = * x * c : c X ..C X.o.O.] u +.c * = * * = * m @ @ m * x x x * = ",
"Z Z Z Z Z B y @.#.$.S %.~ ! &.Z %.*.y y N ^ H k k H y G =.Z %.*.M B Z Z Z B y @.#.$.S %.~ ! &.Z %.*.y y N ^ H k k H y G =.Z %.-.",
"L L L T T T J W ;.:.P J K K L J >.,.<.W T T T W Q T J >.1.2.3.3.4.L L T T T J W ;.:.P J K K L J >.,.<.W T T T W Q T J >.1.2.3.5.",
"Z B y H k H y y N ^ N y y N y Z 6.7.8.S %.N y y N y Z %.-.k -.%.Z B y H k H y y N ^ N y y N y Z 6.7.8.S %.N y y N y Z %.-.k -.%.",
"x * : 7 6 7 : : @ > - : : - : c 9.0.J y X @ : : @ : c + 7 @ = * x * : 7 6 7 : : @ > - : : - : c 9.0.J y X @ : : @ : c + 7 @ = * ",
"@ 7 0 e i i e 9 q 9 i i i e [ e c Z L B 9.7 0 0 q 0 0 & 8 7 @ @ @ 7 0 e i i e 9 q 9 i i i e [ e c Z L B 9.7 0 0 q 0 0 & 8 7 @ @ ",
"@ @ 4 6 6 6 6 6 3 6 k k l a s d c Z L q.w.; 6 6 3 6 6 3 7 @ @ @ @ @ 4 6 6 6 6 6 3 6 k k l a s d c Z L q.w.; 6 6 3 6 6 3 7 @ @ @ ",
"6 6 6 @ @ @ @ @ @ 7 0 9 q 0 e & X B L A e.@ @ @ @ @ @ @ @ @ @ @ 6 6 6 @ @ @ @ @ @ 7 0 9 q 0 e & X B L A e.@ @ @ @ @ @ @ @ @ @ @ ",
"r._ ` c = * = * * m : c * c c X v Z K t.v X * x x x x * = * = c ` ] ` c = * = * * m : c * c c X v Z K t.v X * x x x x * = * = * ",
"y.~ ! y N ^ N y y N y B B Z Z A A u.,.i.=.B B Z Z B B y N V 1 %.! ~ ! y N ^ N y y N y B B Z Z A A u.,.i.=.B B Z Z B B y N V 1 %.",
"T K p.K T W Q W W Q W T T T T T W U a.s.3.4.K L L K L L K Q d.f.Q K p.K T W Q W W Q W T T T T T W U a.s.3.4.K L L K L L K Q d.g.",
"N y ! ~ h.j.k.l.k.k k k k k k k.z.x.c.%.v.b.~ ! ! ~ ! n.y m.M.N.S =.! ~ h.j.k.l.k.k k k k k k k.z.x.c.%.v.b.~ ! ! ~ ! n.y m.M.B.",
"O z V.] ` l 9 i 9 7 @ @ @ @ 7 C.l ` +.' Z.u _ } } _ } +.' = v.A.=.z V.] ` l 9 i 9 7 @ @ @ @ 7 C.l ` +.' Z.u _ } } _ } +.' = v.;.",
"r V.k 6 7 ; - > : + = + @ @ @ 7 3 6 6 3 6 k l k k l k a _ : , ( S.V.k 6 7 ; - > : + = + @ @ @ 7 3 6 6 3 6 k l k k l k a _ : , D.",
"z ] & @ * F.X G.O H.J.F.+ @ @ @ @ @ @ @ 7 C.l 9 9 l 9 K.e : / } | ] & @ * F.X G.O H.J.F.+ @ @ @ @ @ @ @ 7 C.l 9 9 l 9 K.e : / L.",
"r u d & 7 c - > + : @ + @ 6 6 6 5 6 6 6 { k l k k { a _ & * ' < y u d & 7 c - > + : @ + @ 6 6 6 5 6 6 6 { k l k k { a _ & * ' s ",
"O $ ] u +.' ` 9 q 8 7 m 7 Z.u Z.' ` ] } } } } _ } } +.' X ..v.P.=.O.] u +.' ` 9 q 8 7 m 7 Z.u Z.' ` ] } } } } _ } } +.' X ..v.a.",
"N ^ ~ ! &.I.x.m.k k.k k k m.h.~ M x.~ ! &.&.! ~ ! &.&.B G H U.N.S %.~ ! &.I.x.m.k k.k k k m.h.~ M x.~ ! &.&.! ~ ! &.&.B G H U.B.",
"T J K K L L T Q E Q W W Q W T K J K K L L T I P T L L L K Q Y.T.Q R.K K L L T Q E Q W W Q W T K J K K L L T I P T L L L K Q Y.E.",
"B B y C y y j.k k H y y N ^ N y y N y B y S D W.H y B y N y 6.1 y B y C y y j.k k H y y N ^ N y y N y B y S D W.H y B y N y 6.l ",
"x x * = * * = @ @ m * * 5 + - : + - : c X / < ' 5 > : > - + : - * x * = * * = @ @ m * * 5 + - : + - : c X / < ' 5 > : > - + : - ",
"3 4 5 6 6 5 7 @ @ @ @ 4 8 & 9 0 q 9 w e : r t y u e i e 9 q 0 0 6 7 5 6 6 5 7 @ @ @ @ 4 8 & 9 0 q 9 w e : r t y u e i e 9 q 9 e ",
"6 8 & 9 9 & 8 7 @ @ @ @ 7 5 & p 6 a s d : f g h j a k l & p 6 4 6 8 & 9 9 & 8 7 @ @ @ @ 7 5 & p 6 a s d : f g h j a k l & p 6 6 ",
"3 7 5 6 6 5 7 @ @ @ @ @ @ 4 8 & 9 e e & X r g r z 0 9 q 0 0 7 @ @ 7 5 6 6 5 7 @ @ @ @ @ @ 4 8 & 9 e e & X r g r z 0 9 q 0 0 7 @ ",
"* = * x x * = * = * * = * * c * c : c X v r b r v n 7 + c c * = * = * x x * = * = * * = * * c * c : c X v r b r v n 7 + c c * m ",
"M N y B B y N V N y y C y B Z Z Z Z Z B A S D F A G N y B B y N V N y B B y N V N y y C y B Z Z Z Z Z B A S D F A G N y B B y H ",
"J % J K L L K J P I U K Y K L L L K L L T U R E W W Q W T T W Q J % J K L L K J P I U K Y K L L L K L L T U R E W W Q W T T W Q ",
"M N V N y Z B y S D S G ! ~ ! B ! ~ ! M N ^ H k k k k k k k k H ^ N V N y Z B y S D S G ! ~ ! B ! ~ ! M N ^ H k k k k k k k k & ",
"+ 5 + - > : c X / ( / z ) _ ` ' ` ] ` c = * m @ m @ @ @ @ @ @ m + 5 + - > : c X / ( / z ) _ ` ' ` ] ` c = * m @ m @ @ @ @ @ @ @ ",
"6 8 & 9 e [ e : r t y j a k 6 { k l & 5 @ 7 3 6 6 @ @ @ @ @ @ @ 4 8 & 9 e [ e : r t y j a k 6 { k l & 5 @ 7 3 6 6 @ @ @ @ @ @ @ ",
"@ 7 5 & a s d : r } |  .w 9 l 9 9 q 8 7 7 8 & 9 0 7 @ @ @ @ @ @ @ 7 5 & a s d : r } |  .w 9 l 9 9 q 8 7 7 8 & 9 0 7 @ @ @ @ @ @ ",
"@ @ 7 9 e e & X / t y < s a 6 6 6 3 4 @ @ 7 3 6 6 @ @ @ @ @ @ @ @ @ 7 9 e e & X / t y < s a 6 6 6 3 4 @ @ 7 3 6 6 @ @ @ @ @ @ @ ",
"x x * c : c X ..C X.o.O.] u +.c * = * * = * m @ @ m * x x x * = * x * c : c X ..C X.o.O.] u +.c * = * * = * m @ @ m * x x x * = ",
"Z Z Z Z Z B y @.#.$.S %.~ ! &.Z %.*.y y N ^ H k k H y G =.Z %.*.M B Z Z Z B y @.#.$.S %.~ ! &.Z %.*.y y N ^ H k k H y G =.Z %.-.",
"L L L T T T J W ;.:.P J K K L J >.,.<.W T T T W Q T J >.1.2.3.3.4.L L T T T J W ;.:.P J K K L J >.,.<.W T T T W Q T J >.1.2.3.5.",
"Z B y H k H y y N ^ N y y N y Z 6.7.8.S %.N y y N y Z %.-.k -.%.Z B y H k H y y N ^ N y y N y Z 6.7.8.S %.N y y N y Z %.-.k -.%.",
"x * : 7 6 7 : : @ > - : : - : c 9.0.J y X @ : : @ : c + 7 @ = * x * : 7 6 7 : : @ > - : : - : c 9.0.J y X @ : : @ : c + 7 @ = * ",
"@ 7 0 e i i e 9 q 9 i i i e [ e c Z L B 9.7 0 0 q 0 0 & 8 7 @ @ @ 7 0 e i i e 9 q 9 i i i e [ e c Z L B 9.7 0 0 q 0 0 & 8 7 @ @ ",
"@ @ 4 6 6 6 6 6 3 6 k k l a s d c Z L q.w.; 6 6 3 6 6 3 7 @ @ @ @ @ 4 6 6 6 6 6 3 6 k k l a s d c Z L q.w.; 6 6 3 6 6 3 7 @ @ @ ",
"6 6 6 @ @ @ @ @ @ 7 0 9 q 0 e & X B L A e.@ @ @ @ @ @ @ @ @ @ @ 6 6 6 @ @ @ @ @ @ 7 0 9 q 0 e & X B L A e.@ @ @ @ @ @ @ @ @ @ @ ",
"r._ ` c = * = * * m : c * c c X v Z K t.v X * x x x x * = * = c ` ] ` c = * = * * m : c * c c X v Z K t.v X * x x x x * = * = * ",
"y.~ ! y N ^ N y y N y B B Z Z A A u.,.i.=.B B Z Z B B y N V 1 %.! ~ ! y N ^ N y y N y B B Z Z A A u.,.i.=.B B Z Z B B y N V 1 %.",
"T K p.K T W Q W W Q W T T T T T W U a.s.3.4.K L L K L L K Q d.f.Q K p.K T W Q W W Q W T T T T T W U a.s.3.4.K L L K L L K Q d.g.",
"N y ! ~ h.j.k.l.k.k k k k k k k.z.x.c.%.v.b.~ ! ! ~ ! n.y m.M.N.S =.! ~ h.j.k.l.k.k k k k k k k.z.x.c.%.v.b.~ ! ! ~ ! n.y m.M.B.",
"O z V.] ` l 9 i 9 7 @ @ @ @ 7 C.l ` +.' Z.u _ } } _ } +.' = v.A.=.z V.] ` l 9 i 9 7 @ @ @ @ 7 C.l ` +.' Z.u _ } } _ } +.' = v.;.",
"r V.k 6 7 ; - > : + = + @ @ @ 7 3 6 6 3 6 k l k k l k a _ : , ( S.V.k 6 7 ; - > : + = + @ @ @ 7 3 6 6 3 6 k l k k l k a _ : , D.",
"z ] & @ * F.X G.O H.J.F.+ @ @ @ @ @ @ @ 7 C.l 9 9 l 9 K.e : / } | ] & @ * F.X G.O H.J.F.+ @ @ @ @ @ @ @ 7 C.l 9 9 l 9 K.e : / L.",
"r u d & 7 c - > + : @ + @ 6 6 6 5 6 6 6 { k l k k { a _ & * ' < y u d & 7 c - > + : @ + @ 6 6 6 5 6 6 6 { k l k k { a _ & * ' s ",
"O $ ] u +.' ` 9 q 8 7 m 7 Z.u Z.' ` ] } } } } _ } } +.' X ..v.P.=.O.] u +.' ` 9 q 8 7 m 7 Z.u Z.' ` ] } } } } _ } } +.' X ..v.a.",
"$ ^ ~ ! &.I.x.m.k k.k & k m.h.~ M x.~ ! &.&.! ~ ! &.&.B y H Q.N.S %.~ ! &.I.x.m.k k.k & k m.h.~ M x.~ ! &.&.! ~ ! &.&.B y H Q.!.",
"R :.<.I ~.~.I R R R R R R R :.<.I I <.I ~.~.I <.I ~.~.~.I ^./.(.^.:.<.I ~.~.I R R R R R R R :.<.I I <.I ~.~.I <.I ~.~.~.I ^./.)."
};
