/* XPM */
static char *collectible1675519574[] = {
/* columns rows colors chars-per-pixel */
"64 64 137 2 ",
"   c None",
".  c #2D1204",
"X  c #321709",
"o  c #34190A",
"O  c #342B13",
"+  c #382F17",
"@  c #3A3018",
"#  c #142A2C",
"$  c #1A2E2F",
"%  c #1A302F",
"&  c #1C3331",
"*  c #1E3832",
"=  c #462D1B",
"-  c #4B321F",
";  c #4C3320",
":  c #374E2D",
">  c #394D2C",
",  c #234537",
"<  c #234A37",
"1  c #244738",
"2  c #254B39",
"3  c #2D5035",
"4  c #26513A",
"5  c #2B563D",
"6  c #2D5A3E",
"7  c #385330",
"8  c #574714",
"9  c #594613",
"0  c #574814",
"q  c #594915",
"w  c #524A1A",
"e  c #59571F",
"r  c #604F18",
"t  c #635017",
"y  c #615018",
"u  c #67591F",
"i  c #6E5B1D",
"p  c #705D1D",
"a  c #464B22",
"s  c #4E5023",
"d  c #43532A",
"f  c #6F563E",
"g  c #73573F",
"h  c #766422",
"j  c #7B6622",
"k  c #7F6922",
"l  c #2F5D41",
"z  c #365E44",
"x  c #2F6541",
"c  c #316642",
"v  c #346A44",
"b  c #367147",
"n  c #387347",
"m  c #367449",
"M  c #387448",
"N  c #3B7B4B",
"B  c #447C4E",
"V  c #5A6453",
"C  c #4D7D52",
"Z  c #6E6444",
"A  c #616556",
"S  c #8A7327",
"D  c #8C7528",
"F  c #937B2A",
"G  c #80674C",
"H  c #3E824D",
"J  c #43834C",
"K  c #4A8153",
"L  c #428C52",
"P  c #459251",
"I  c #4D9A55",
"U  c #4BA156",
"Y  c #4EA55C",
"T  c #4EAD5E",
"R  c #54A156",
"E  c #55A45C",
"W  c #51AD5E",
"Q  c #57BD5D",
"!  c #58BD5F",
"~  c #52B15B",
"^  c #53AD60",
"/  c #5CAB62",
"(  c #55B362",
")  c #5FB065",
"_  c #59BC63",
"`  c #7AAC6F",
"'  c #61B066",
"]  c #65B168",
"[  c #68B56A",
"{  c #7EB472",
"}  c #5BC363",
"|  c #5EC966",
" . c #5EC468",
".. c #60CF67",
"X. c #62D566",
"o. c #63D967",
"O. c #63D568",
"+. c #65DB68",
"@. c #67E06A",
"#. c #68E36B",
"$. c #6BEB6D",
"%. c #6EF16F",
"&. c #6EEA72",
"*. c #71EB78",
"=. c #6FF270",
"-. c #898A6E",
";. c #9D8465",
":. c #948B65",
">. c #958C73",
",. c #A08466",
"<. c #A68D6D",
"1. c #85B675",
"2. c #90B77A",
"3. c #9AB17C",
"4. c #78EB87",
"5. c #7BEB8B",
"6. c #7FE698",
"7. c #9EB980",
"8. c #AABB85",
"9. c #B0BC88",
"0. c #C5AC87",
"q. c #C5B78F",
"w. c #CDB48E",
"e. c #C8BE92",
"r. c #D3BA93",
"t. c #82EC99",
"y. c #87EDA2",
"u. c #8FEDB3",
"i. c #91EDB5",
"p. c #CCC195",
"a. c #D4C197",
"s. c #DDC39B",
"d. c #E1C69E",
"f. c #E4C89F",
"g. c #E5C9A1",
"h. c #96EDC1",
"j. c #98EDC3",
/* pixels */
"                                                                                                                                ",
"                                                                                                                                ",
"                                                                                                                                ",
"                                                                                                                                ",
"                                                      q q q q q q 8 i F F F F                                                   ",
"                                                      q q q q q q 8 i F F F F                                                   ",
"                                                      q q q 0 q 8 8 i F F F F                                                   ",
"                                                      q q q q y y q p S D S S                                                   ",
"                                                      q q 0 i S D D k y y y y                                                   ",
"                                                      q q 0 i F F F k q 8 q 0                                                   ",
"                                                      q q 9 i F F F k q q q q                                                   ",
"                                                      w w w u S D D h w w w w                                                   ",
"                                                      3 3 4 > y y t s 3 3 3 3                                                   ",
"                                                      4 4 4 > q q q a 2 4 4 4                                                   ",
"                                                      4 4 4 > 0 9 9 a 5 4 4 4                                                   ",
"                                                      4 4 4 7 e e e d 5 4 4 2                                                   ",
"                                              % $ $ * 4 4 4 v R R R J 4 4 4 , $ $ $ $                                           ",
"                                              $ $ $ * 4 4 2 m ( ( ~ P 4 4 4 , $ % % $                                           ",
"                                              $ $ $ * 2 2 < b T ( ( H 4 < 4 , $ $ $ $                                           ",
"                                              * * * < x c x H ( ( ( I x x x 4 * * * *                                           ",
"                                      % $ $ , v c c P o.o.O.+.+.#.#.@.O.o.o.W v v v 5 $ $ $ %                                   ",
"                                      $ $ $ 1 n m b U $.$.$.&.$.$.$.$.%.$.%.} n n M 6 $ $ $ $                                   ",
"                                      $ $ $ , v b c I $.$.$.$.$.$.$.$.$.$.%.Q b v M 5 $ $ $ %                                   ",
"                                      * & & 5 H H H Y $.$.$.$.$.$.$.&.&.*.*. .H H J c * * * *                                   ",
"                              $ $ $ , v v c P +.+.+.#.$.#.$.$.$.$.$.4.u.i.i.6.+.+.@.~ c v v 5 % $ & %                           ",
"                              $ % $ , n M b U $.$.$.$.$.$.$.$.$.$.$.5.j.j.j.y.$.$.%.} m M M 5 % $ $ $                           ",
"                              & $ $ 1 b b v I $.$.$.$.$.$.$.$.$.$.$.4.i.j.j.y.$.$.%._ v b n 5 % $ $ $                           ",
"                              $ $ $ 1 N N M U $.$.$.$.$.$.$.$.$.#.$.4.u.u.i.t.$.$.$.} N N N l % $ $ $                           ",
"                              $ $ $ 6 Y Y Y _ &.$.$.$.$.$.$.$.$.$.$.&.*.*.&.&.&.$.$.O.Y Y ^ N $ $ % %                           ",
"                              % $ # z ^ ^ W } $.$.$.$.$.$.$.&.#.$.$.$.#.$.$.$.$.$.$.O.( ^ ( H & $ % %                           ",
"                              $ $ # z ^ ^ ^ } $.$.$.$.$.$.$.$.$.$.$.$.$.$.$.$.$.$.&.O.^ ^ ( B & % % %                           ",
"                              $ $ $ 6 ^ ( W } #.+.#.$.$.$.$.$.$.$.$.$.$.$.$.$.@.#.#.O.^ ^ ^ N % $ % %                           ",
"                              $ $ $ l ^ ^ ^ ( ( ( ) ..$.#.$.$.$.$.$.$.$.$.$.+.( ( ( ( ^ ^ ( N & $ % %                           ",
"                              $ $ # z ^ ( ^ ^ ^ W W _ $.$.$.$.$.$.$.$.$.$.$.O.^ ^ W ^ ^ ^ ( H % % % %                           ",
"                              $ $ # 6 W W W ^ ^ ( W ..#.%.$.%.$.$.$.$.$.$.$.O.^ ^ ( ^ ^ ^ T H $ % % %                           ",
"                              $ $ $ z ] ] ] ' ^ ^ ^ _ #.#.#.#.#.+.#.#.#.#.#.O.^ ^ ^ ^ ) ] [ K & $ % %                           ",
"                              $ $ # V e.a.p.7.^ ^ ^ ( ( ( ( ( ( _ ( ( ( ( ( ( ( ^ T { p.e.p.-.% $ % %                           ",
"                              & $ # A s.r.d.8.^ ^ ^ ^ W ^ W ^ ^ ^ ^ ^ ^ ^ ^ ^ ^ ^ T 1.s.g.g.>.% $ $ %                           ",
"                              $ & # A s.s.d.8.W W W ^ ( ^ ( ( W ^ T ^ ^ ( ( ^ T ^ T 1.s.r.g.>.% $ $ $                           ",
"                              $ $ # A r.s.s.9.] ] ] / I I I E ] ] ] / I I I E ] ] ] 2.r.s.g.>.% $ $ %                           ",
"                              $ $ # A s.s.s.r.p.p.p.:.@ @ O Z e.e.p.:.@ @ O Z e.e.e.e.r.s.g.>.% % % %                           ",
"                              $ $ # V s.s.s.s.s.s.g.;.o o . g s.d.g.,.o o . g s.d.d.r.g.a.g.>.$ $ % %                           ",
"                              & $ # A s.s.d.s.s.s.f.;.o o . f s.s.s.;.o o . f a.s.s.g.d.s.g.>.% $ $ %                           ",
"                              $ % # V e.e.e.p.a.s.s.<.- - = Z d.s.g.<.; ; ; Z s.s.s.r.e.p.a.-.% $ % %                           ",
"                              $ % $ z ] ] ' 2.s.s.s.r.0.0.q.w.s.s.s.r.0.0.0.w.s.s.s.9.] ] [ K & $ $ $                           ",
"                              $ % # l T W T { s.s.s.s.s.s.s.s.s.s.s.s.g.d.d.s.s.r.g.8.^ T T N % $ $ %                           ",
"                              $ % # l ^ ( T 1.s.d.s.d.s.s.d.s.s.s.s.s.s.s.s.s.d.g.g.8.^ ( ( H % % % %                           ",
"                              $ $ # l Y Y Y ` q.q.q.q.q.q.q.q.q.q.q.q.q.q.q.q.q.q.w.3.Y Y W N % $ % %                           ",
"                              & $ $ 1 N N N B C C B C C C C C C C K C C C C C C C C B M N N l $ % $ $                           ",
"                              $ $ $ , n n v v b b b b b b v b v b v b b b b b v v b b b b b 5 $ $ % %                           ",
"                              $ $ $ 1 M n n n b b b b b b n v M b b b b b b n b m b M M M M l $ % % %                           ",
"                              $ % $ , v v v v n b b b b n M M M b b b b b b M M b M v v v v l % % % %                           ",
"                                      & * & 2 n b M b n b M v M b m b b b n b v n M 6 * & * *                                   ",
"                                      $ $ $ 1 n b b b n n b M b b b m b M b b M b M 6 $ $ $ $                                   ",
"                                      $ $ $ 1 n M M M M M b M b M M M M b M M M M M 6 % % % %                                   ",
"                                      $ $ $ , v v c v v v v v v c v v c v v v v v v 5 $ % % %                                   ",
"                                              * * & * * * & * * * * & * * * * * & * *                                           ",
"                                              $ $ $ $ $ $ $ $ $ $ $ $ $ $ $ $ $ $ $ $                                           ",
"                                              % $ $ $ $ $ $ % $ $ $ $ $ $ $ $ $ % % %                                           ",
"                                              $ $ % % $ % $ $ $ $ % % $ % $ $ $ % % %                                           ",
"                                                                                                                                ",
"                                                                                                                                ",
"                                                                                                                                ",
"                                                                                                                                "
};
