/* XPM */
static char *Screen_Shot_2023_02_05_at_12_58_35_PM_removebg_preview__1_1675598388[] = {
/* columns rows colors chars-per-pixel */
"64 64 138 2 ",
"   c None",
".  c #14012F",
"X  c #160231",
"o  c #190532",
"O  c #1C0935",
"+  c #1E0A3A",
"@  c #210D33",
"#  c #290E32",
"$  c #220C3A",
"%  c #241137",
"&  c #2D1032",
"*  c #2E1A37",
"=  c #26113C",
"-  c #2E1A39",
";  c #381732",
":  c #3F1C34",
">  c #311E3B",
",  c #35223C",
"<  c #461E32",
"1  c #472136",
"2  c #4D2134",
"3  c #532733",
"4  c #6E3536",
"5  c #723836",
"6  c #793B36",
"7  c #743D3E",
"8  c #473444",
"9  c #493542",
"0  c #4E3C47",
"q  c #4F3B48",
"w  c #533E45",
"e  c #544145",
"r  c #5B4746",
"t  c #5E4A47",
"y  c #504048",
"u  c #5B4A4A",
"i  c #604C46",
"p  c #624E48",
"a  c #6A574B",
"s  c #6C594C",
"d  c #6F5B50",
"f  c #7B674F",
"g  c #736154",
"h  c #786552",
"j  c #7E6A53",
"k  c #864338",
"l  c #894539",
"z  c #934D39",
"x  c #984D39",
"c  c #96563B",
"v  c #A5543B",
"b  c #A9573A",
"n  c #AB5E3D",
"m  c #B75F3B",
"M  c #BB5F3B",
"N  c #BD623C",
"B  c #C0643D",
"V  c #C26A3F",
"C  c #C5703F",
"Z  c #926946",
"A  c #996D47",
"S  c #94704B",
"D  c #836F54",
"F  c #867556",
"G  c #897656",
"H  c #8F7955",
"J  c #8A7559",
"K  c #8E7B5C",
"L  c #917E5A",
"P  c #AD6740",
"I  c #BF6540",
"U  c #A3774B",
"Y  c #A47F50",
"T  c #C16641",
"R  c #C26B42",
"E  c #C67341",
"W  c #C87742",
"Q  c #CB7D45",
"!  c #99855B",
"~  c #B2804B",
"^  c #AA905B",
"/  c #A79361",
"(  c #A99561",
")  c #AC9962",
"_  c #B79D62",
"`  c #BEA261",
"'  c #B3A16A",
"]  c #BEAB69",
"[  c #CE8146",
"{  c #CE8348",
"}  c #CB8A4B",
"|  c #D08446",
" . c #D28847",
".. c #D18548",
"X. c #D38A49",
"o. c #D6904A",
"O. c #DA954D",
"+. c #DC9A4F",
"@. c #DD9E50",
"#. c #DFA152",
"$. c #E1A353",
"%. c #E4AA55",
"&. c #E8AF57",
"*. c #E4AD58",
"=. c #E7B057",
"-. c #E8B157",
";. c #E5B35D",
":. c #E9B359",
">. c #E7B85F",
",. c #EAB95E",
"<. c #C1AC69",
"1. c #CEB065",
"2. c #D7B664",
"3. c #D5BF6F",
"4. c #E3BB62",
"5. c #EBBC60",
"6. c #DBC26C",
"7. c #D7C371",
"8. c #DAC471",
"9. c #EDC364",
"0. c #E0C069",
"q. c #EDC569",
"w. c #EFC969",
"e. c #F0CD6C",
"r. c #F2D16F",
"t. c #EBD376",
"y. c #EBD778",
"u. c #EDD97C",
"i. c #F3D572",
"p. c #F5DA75",
"a. c #F8DE77",
"s. c #F4DC79",
"d. c #F9DF79",
"f. c #F7E17B",
"g. c #F9E27B",
"h. c #FFE87D",
"j. c #F6E180",
"k. c #FAE481",
/* pixels */
"                                                                                                                                ",
"                                                                                                                                ",
"                                          o o o o o o o o X X o o o o o o o o +                                                 ",
"                                          o o X o X X o X o X X o o X X o o X X                                                 ",
"                                          . . . . . X X . . X X . X X X . X . X                                                 ",
"                                          f f D j j j j j j j j j j j j j j j h 0                                               ",
"                          O X X X X o X * 8.g.g.j.f.f.f.f.j.g.g.f.f.g.f.j.f.j.f.t X X X X o o +                                 ",
"                          O X X X X X X * 7.f.f.d.f.f.f.f.s.f.f.f.f.f.f.f.f.f.s.t X X X X X X +                                 ",
"                          % O % % @ @ @ , 6.f.f.s.d.d.f.s.d.d.d.s.d.s.s.f.d.d.s.p O O @ @ O % >                                 ",
"                    o o O L <.] <.<.] ] <.>.,.,.5.5.5.,.5.5.5.5.5.5.5.5.,.,.,.5.1.] <.<.<.<.<.' , X o o                         ",
"                    X X o ^ h.g.g.g.g.g.f.,.-.&.=.=.-.-.*.=.-.-.-.-.=.=.-.-.-.-.r.g.g.g.g.k.k.8.- X X o                         ",
"                    X X o ( g.f.f.f.f.f.p.,.=.-.-.-.-.-.:.-.-.-.-.-.:.-.-.-.-.-.r.g.f.g.j.j.g.8.- X X o                         ",
"                  8 0 0 9 _ p.i.i.i.p.i.r.,.-.-.%.#.#.#.@.@.$.$.#.#.$.#.%.-.-.:.e.p.i.i.i.i.i.6.r 8 9 9                         ",
"            o o X j j.u.y.0.:.:.:.:.-.:.-.-.-.-.$.V N N N T N N N N N N o.-.-.-.,.,.,.,.5.:.-.,.t.y.y.] % o o o                 ",
"            X X o K g.f.f.9.-.-.-.-.-.-.-.-.=.:.$.V N N N N B M N N N M X.:.-.-.-.,.:.-.*.-.&.,.p.f.g.<.O . o o                 ",
"            X X + ! g.f.f.9.-.-.-.-.:.-.:.-.:.:.$.N N N N N M B N N N N X.:.:.-.-.;.*.-.&.&.-.,.p.g.h.<.O X X X                 ",
"      +   u J K H ` w.w.w.,.-.-.-.o. . . .|  . .X.X.X.X.X.X.X.X.X.X.X.X. . . . . . . .o.%.-.-.:.q.w.w.2.K J J g +   O           ",
"    X X X g k.k.h.w.-.-.-.-.-.-.-.C N N N N M N E %.-.-.:.-.:.-.:.:.:.:.[ N N N M M N N #.:.-.-.-.&.-.,.g.g.h.( o o o O         ",
"    + + o d f.f.f.9.-.-.-.-.-.-.-.C N N N N N N C %.-.-.-.&.&.-.&.-.-.-. .N N N N N N N #.-.-.-.-.-.-.,.d.d.f.) o o .           ",
"    $ = $ d f.d.g.9.-.-.-.%.%.%.%.C V V B V N N E -.:.:.:.,.-.:.:.:.:.:.X.N V B V N N C %.:.:.:.-.-.-.5.p.d.g.) o o .           ",
"    $ $ + s d.f.g.9.-.-.-.o.C C C O.#.#.$.$.#.#.*.t.p.i.p.i.p.i.i.i.i.p.>.#.#.$.#.$.$.$.w.p.i.r.:.-.-.:.,.,.5.~ o X X           ",
"    o o X a f.d.g.w.-.-.-.C M M B #.:.:.=.-.-.-.,.s.f.f.f.f.f.f.f.f.f.g.w.-.-.-.-.-.-.-.p.f.f.p.,.-.-.-.&.:.-.U o o .           ",
"    X X . a f.f.g.w.-.-.-.C M B B +.-.-.-.-.-.-.,.d.d.d.f.f.d.f.g.f.f.f.w.-.-.-.-.-.-.-.i.f.f.p.:.-.-.:.:.-.:.U o . X           ",
"    e w w H t.i.r.9.-.:.:.| M N B @.-.-.:.,.9.,.9.w.i.i.i.i.i.i.r.i.i.r.:.@.+.+.=.-.-.:.i.f.f.f.9.5.5.,.-.-.-.~ < < < :         ",
"X w t.u.u.w.:.:.=.-.-.=.-.| B B B @.-.-.:.p.f.f.i.:.-.-.;.-.-.-.:.:.-.:. .B B N +.=.=.:.p.f.f.f.s.d.d.i.:.-.-.O.N m N 4 X O =   ",
"X w s.f.f.r.=.=.-.-.-.:.-.C N N B @.-.-.:.p.f.f.p.:.-.-.-.-.-.-.-.-.-.-. .M N N +.-.=.-.p.f.f.f.f.f.f.i.:.-.-.O.N N B 4 O = $   ",
"X w u.d.f.i.-.-.-.=.:.=.-.| N B B #.-.-.:.f.g.g.p.:.-.-.-.-.-.-.-.-.-.-...M M N +.-.-.:.i.f.f.f.f.f.d.i.:.-.-.+.N N T 7 $ O o   ",
". w p.f.f.w.-.-.-.+.[ | |  .o.o.o.,.r.w.e.9.9.9.9.:.:.:.-.-.-.-.-.-.-.-.@.o.o.X. .[  . .>.9.9.w.d.f.g.i.:.-.-.O.N I T 7 O o X   ",
"X w u.f.f.w.-.-.:. .N m N o.:.-.:.i.g.f.p.,.=.=.=.:.,.-.-.-.-.-.-.-.-.-.-.:.:.-.W N N N #.-.-.:.p.f.f.i.:.-.-.O.R R T 4 X X o   ",
". w p.d.f.r.-.-.-. .N N N O.-.-.-.i.f.f.p.,.-.-.:.>.;.:.-.-.-.-.-.-.-.-.-.-.-.&.W N N N #.-.-.:.p.f.f.i.-.-.-.@.T R T 4 X X o   ",
"X w p.f.f.i.=.=.-. .N N N o.-.-.:.i.g.f.p.,.=.:.;.;.:.-.-.-.-.-.-.-.-.-.-.-.-.&.Q N N V #.:.-.,.p.d.f.i.:.-.&.O.I I B 4 X X o   ",
". 0 u.d.f.w.=.-.-. .N N N o.-.-.-.i.f.f.p.,.-.:.:.=.=.-.-.-.-.-.-.-.-.-.-.-.-.-.Q N N N @.:.=.>.p.f.f.i.:.-.-.O.I M B 4 X X o   ",
". w u.f.f.e.-.-.&. .M N N O.:.-.-.i.f.f.d.5.;.:.-.-.-.-.-.-.-.-.-.-.-.-.-.-.-.&.Q N N N #.:.-.>.p.f.f.r.:.-.-.O.B N B 4 . X o   ",
"X w s.d.f.e.-.-.:.| N N N O.-.-.:.i.f.f.s.,.:.-.-.-.-.-.-.-.=.-.-.-.-.-.-.-.-.&.W N N N #.:.-.>.f.f.f.i.:.-.-.O.N N B 4 X X o   ",
". w s.d.f.r.-.-.-. .N N N O.-.-.-.i.j.j.s.;.-.-.=.-.-.=.-.-.-.-.-.-.-.-.-.-.-.=.Q N N I #.-.-.:.p.f.f.i.:.-.-.+.N N B 4 X X X   ",
"X w p.f.f.e.-.-.:. .N N N o.:.&.:.i.j.j.p.,.-.-.-.-.-.:.=.-.-.-.-.-.-.-.-.-.-.-.[ N N N #.-.-.>.p.f.g.i.-.-.-.O.N N B 4 X X o   ",
". w p.d.f.e.-.-.-. .N N B o.:.:.:.i.f.f.s.:.:.-.-.=.-.-.-.-.-.-.-.-.-.-.-.-.-.*.Q N N N #.-.=.,.p.g.f.r.:.-.-.O.N N N 4 X X o   ",
"X 0 u.d.f.e.-.-.-. .M N B o.:.&.:.i.f.f.p.:.=.-.=.:.-.-.-.-.-.=.-.-.-.-.-.-.-.-.W N N N #.-.=.>.p.f.g.i.:.-.-.O.N N N 5 X o o   ",
"X w y.f.f.e.-.-.&.#.o.o.o. .Q Q { ;.9.9.9.r.w.r.w.:.-.=.=.-.-.-.-.-.-.-.+.Q Q | X.O.O.O.9.r.r.w.9.9.9.,.:.-.-.+.N N B 5 X X o   ",
". w p.f.g.e.-.-.-.:.:.:.:.Q N M N @.-.-.:.p.g.f.p.:.-.-.-.-.-.-.-.-.&.&...M M N +.:.=.:.p.f.f.p.,.-.-.-.-.-.-.+.N N B 4 X X o   ",
"X w s.g.g.e.-.-.:.-.-.-.-.Q B M N @.-.-.:.p.f.f.p.:.=.=.=.=.=.-.-.&.-.-...M M B O.-.-.:.i.f.f.p.:.-.-.-.-.-.-.+.N N B 5 X X o   ",
"X w 6.8.8.0.:.,.,.-.-.-.-.Q M M N @.:.-.,.i.p.p.r.*.%.%.%.%.%.%.%.%.%.%.X.V R V @.-.-.:.i.f.f.p.,.-.-.-.%.$.%.X.b b b 5 X X o   ",
"    > > * j p.p.p.9.&.-.-.Q B B I @.:.-.-.,.,.:.*.E C N N V V R V V T V X.%.%.%.&.&.:.,.s.d.f.p.:.-.-.#.C V V z & & & &         ",
"    X X . a f.f.f.q.-.-.-.Q M M N @.-.-.-.-.-.-.#.N N N N N N N N N M N X.-.*.-.&.:.:.,.i.f.f.p.,.-.:.+.B N N k o o o           ",
"    X X . a f.f.f.w.-.-.&.Q M M N +.-.&.-.&.-.-.#.N N N N N N N M M N M X.-.*.-.:.5.-.-.y.f.d.p.:.-.-.@.B B B k o o o           ",
"    X o X a d.f.f.w.-.-.&.o.Q Q [ =.9.9.9.9.9.9.;.{ [ Q Q Q Q [ Q Q Q Q $.q.9.q.q.5.q.q.e.e.e.e.:.-.:.@.B N B k o X X           ",
"    o . . s f.s.f.w.&.-.-.-.-.-.:.r.f.f.f.f.p.f.p.-.=.=.=.=.-.-.-.-.-.&.e.d.j.j.j.d.d.s.5.-.-.-.-.-.-.@.B M N l o o o           ",
"    X X X a f.f.f.q.-.-.-.-.-.-.-.p.f.f.f.f.f.f.p.:.=.=.=.=.-.-.-.-.-.-.e.d.j.d.j.d.d.s.,.&.-.-.-.-.-.#.B N B l o X o o         ",
"    o @ + g d.f.s.q.=.=.-.=.:.=.-.i.f.f.f.f.f.f.i.:.-.-.-.-.-.-.-.-.:.:.e.f.f.a.f.f.f.f.,.-.-.-.-.=.-.@.N N N k o . o           ",
"          y t t t ^ i.r.r.5.-.-.-.,.9.5.5.5.5.9.9.r.r.r.r.r.r.r.r.t.i.y.w.5.5.9.5.5.5.9.:.-.-.%.[ Q [ n 3 2 2 1                 ",
"            X . . F f.g.f.9.-.-.-.-.-.-.=.=.=.-.:.f.f.f.f.f.f.f.f.f.f.f.w.-.-.-.-.=.-.-.-.-.-.$.V N N x o . X X                 ",
"            X X X F h.f.f.9.-.=.-.-.-.-.-.-.-.=.,.f.f.f.f.f.f.f.f.f.f.f.w.-.-.-.-.-.-.-.-.-.-.%.V N N x O X o o                 ",
"            o X X D 7.3.6.4.,.,.:.,.-.-.-.-.-.-.,.i.p.p.p.p.a.p.p.p.p.p.9.-.-.-.%.%.$.%.$.$.%.+.n v v l O X o o                 ",
"                  - - * * ) d.p.p.,.-.-.-.-.-.-.-.:.,.,.,.-.-.,.:.,.:.:.-.-.-.-.[ N N N B B V n ; # # #                         ",
"                    X . o / g.f.f.,.=.=.-.=.-.-.-.-.-.-.-.-.-.-.-.-.-.-.-.-.-.-.[ N N N N N B v # . . o                         ",
"                    o o o ( h.g.g.9.-.,.:.-.-.-.-.-.-.:.-.-.-.-.:.-.:.-.-.-.-.-.Q N N N B B B b # . o O                         ",
"                    o o o j ! ! ! S Z Z A  .o.X.o.X.o.o.o.o.X.o.o.o.X.o.o.o.o.X.c 5 6 6 6 6 6 6 % O O                           ",
"                          o X o . . X X # v N N N N N N N N N M N N N N N N N N 2 X X X X X o X                                 ",
"                          o X o o X X X # v N N N N N N N N N N N N N N N N N N 2 X X o X X o X                                 ",
"                          o o X . o o X # v N N m N m m m N M m M M m M m m m m 2 X o o o X o o                                 ",
"                                          1 < < < < < < < < < < < < < < < < < <                                                 ",
"                                          . X X . . . . X X X X X X X X . . X .                                                 ",
"                                          o o X X o o X o X X X X X o X X X X o                                                 ",
"                                          O o o o o o o o o o o o o o o o o o o                                                 "
};
