/* XPM */
static char *exitgate__1_1675519086[] = {
/* columns rows colors chars-per-pixel */
"64 64 173 2 ",
"   c None",
".  c #1D1716",
"X  c #1E1817",
"o  c #201716",
"O  c #211817",
"+  c #2A1A16",
"@  c #251C1B",
"#  c #291E1C",
"$  c #27201F",
"%  c #2B201E",
"&  c #35221D",
"*  c #3E251C",
"=  c #2D2323",
"-  c #2F2728",
";  c #2F2828",
":  c #312624",
">  c #332826",
",  c #342B2B",
"<  c #392E2C",
"1  c #37302F",
"2  c #3B302E",
"3  c #342E31",
"4  c #363133",
"5  c #3C3434",
"6  c #3E3837",
"7  c #37363A",
"8  c #3A3638",
"9  c #3D3A3B",
"0  c #432415",
"q  c #482716",
"w  c #4C2917",
"e  c #40261D",
"r  c #4C2B1A",
"t  c #532E19",
"y  c #55311C",
"u  c #5B341D",
"i  c #5F381F",
"p  c #62371C",
"a  c #643A1E",
"s  c #693C1F",
"d  c #452D23",
"f  c #482F25",
"g  c #4D3226",
"h  c #45332C",
"j  c #49342C",
"k  c #533524",
"l  c #5C3720",
"z  c #5D3921",
"x  c #533A2C",
"c  c #413633",
"v  c #433936",
"b  c #4C3A32",
"n  c #443C3B",
"m  c #4A3D3A",
"M  c #513C33",
"N  c #513F39",
"B  c #643C22",
"V  c #6A3F22",
"C  c #5D412E",
"Z  c #47403F",
"A  c #4C413D",
"S  c #5F4533",
"D  c #52433E",
"F  c #5A463B",
"G  c #5D493E",
"H  c #664027",
"J  c #6C4224",
"K  c #61432F",
"L  c #684329",
"P  c #724626",
"I  c #754927",
"U  c #784A27",
"Y  c #704728",
"T  c #764A28",
"R  c #7C4D29",
"E  c #7F502A",
"W  c #634531",
"Q  c #654935",
"!  c #684933",
"~  c #644C3D",
"^  c #684C38",
"/  c #714F35",
"(  c #67503F",
")  c #745137",
"_  c #785437",
"`  c #775438",
"'  c #795539",
"]  c #3E3E42",
"[  c #403F42",
"{  c #454244",
"}  c #4B4443",
"|  c #4E4847",
" . c #464649",
".. c #4A4748",
"X. c #47484A",
"o. c #4B4A4B",
"O. c #524642",
"+. c #534846",
"@. c #5C4B42",
"#. c #534C4B",
"$. c #594D4A",
"%. c #54504F",
"&. c #5B514E",
"*. c #4E4E51",
"=. c #534F50",
"-. c #4F5052",
";. c #545354",
":. c #5A5554",
">. c #5E5857",
",. c #555659",
"<. c #595759",
"1. c #575859",
"2. c #5C5B5C",
"3. c #605045",
"4. c #6B5341",
"5. c #62554D",
"6. c #6B5B4F",
"7. c #715642",
"8. c #745944",
"9. c #625652",
"0. c #635954",
"q. c #6C5C51",
"w. c #635D5C",
"e. c #705F52",
"r. c #65605F",
"t. c #716053",
"y. c #5D5E62",
"u. c #5E6164",
"i. c #636364",
"p. c #6A6565",
"a. c #6C6867",
"s. c #63666A",
"d. c #6C6768",
"f. c #66696E",
"g. c #6B6B6C",
"h. c #716E6D",
"j. c #71706F",
"k. c #676B71",
"l. c #6A6D72",
"z. c #726F70",
"x. c #6D7175",
"c. c #6F7379",
"v. c #727374",
"b. c #72757A",
"n. c #797779",
"m. c #75797D",
"M. c #7A7A7C",
"N. c #7A7776",
"B. c #804F29",
"V. c #84532C",
"C. c #88562D",
"Z. c #8C592E",
"A. c #8E5B30",
"S. c #915D31",
"D. c #767B80",
"F. c #797E82",
"G. c #7C8186",
"H. c #7F8489",
"J. c #828385",
"K. c #81868B",
"L. c #83898E",
"P. c #868C91",
"I. c #898E94",
"U. c #8B9196",
"Y. c #8E9399",
"T. c #929599",
"R. c #94999E",
"E. c #989B9F",
"W. c #929295",
"Q. c #9A9EA2",
"!. c #9DA1A5",
"~. c #9FA4A8",
"^. c #A2A6A9",
/* pixels */
"                                                                                                                                ",
"                                                                                                                                ",
"                                                                                                                                ",
"                                                                                                                                ",
"                                              %     % : = > ; ; 2 2 = 1 , : < > = % &                                           ",
"                                    ; , 1 : 1 Z , > :.>.A a.>.O.v.a.m i.i.A g.#.v :.} > - = :                                   ",
"                                % : 5 N.N.Z %.h.n 6 f.2.A 2.;.A u.>.v >.%.} 2.+.%.g.y.m 0.;.2 v , =                             ",
"                              , ;.r.m g.r.| | 2.n 6 g.:.m 2.%.m 1.;.v g.:.n 2.} Z 2.>.m w.2.D v.>., = =                         ",
"                        : > > { M.p.Z %.x.| Z u.%.c 2.#.c <.;.v i.a.A r.#.m 2.m { i.>.v 2.:.0.f.;.c >.5 =                       ",
"                      = c a.w.2 :.2.Z Z p.| v j.>.5 2.;.c  .} m y.y.Z ;.| n 2.9 } y.} Z x.:.0.u.| &.j.;., 1 =                   ",
"                    : = >.g.y.m A 2.%.c 1.*.1 y.;.5 ;.X.c ;.o.5 X.o.2 9 n c ;.5 { 1.v #.i.| >.,.m r.2.| O.i.6 :                 ",
"                  , A - 5 2.2.;.v >.i.2 o.o.> Z { : 9 4 ,  .n - 8 8 : 1 3 , [ , 4 9 2 Z -.m o.{ A p.2.v r.i...= > ;             ",
"                % #.h.%., v 2.2.| m 2.5 1 8 = - = $ % % # $ # # $ @ @ @ @ = # # $ = = - > , o.6 | j.o.m j.1., 5 &.,             ",
"                = #.s.g.;.> { 1.;., 8 ; @ @ @ O O O O O + O O @ O O @ O O O O O . . O O @ # - : | 1., r.v.{ ; r.i.{ =           ",
"              , 1 , %.y.2.| > { o., @ @ X . @ , n o.>.i.i.i.y.2.%.} >.2.i.i.i.w.:.| 6 : @ O O @ ; 1 2 r.-.; } n.v.{ % =         ",
"            1 r.a.Z = 9 ;.2.A % - % . @ 5 w.J.E.!.Q.!.R.R.T.I.I.x.;.H.U.U.Y.R.R.Q.!.Q.I.v.#.- . @ @ 1 o.4 , r.g.o.> } 6 :       ",
"            2 2.v.g.Z % 1  .9 $ O O 2 v.!.!.R.Y.I.I.U.I.I.I.I.I.b.=.J.I.I.I.I.I.U.U.U.Y.Q.^.W.:.$ O $ > : #.2.{ , &.h.%.>       ",
"            $ 6 2.i.2.o.> : % $ X ..T.~.T.U.L.F.h.i.9.$.+.+.n.I.b.:.L.I.w.O.+.9.0.d.v.J.P.P.E.^.M., X @ 6 o.8 , 0.g.u.1.4 :     ",
"          2 +., $ 8 -.2.*.> X . | Q.R.U.K.r.D e 0 0 0 0 0 0 d.U.c.:.J.I.N 0 0 0 0 0 e g $.j.P.U.!.J.; @ = , 2 r.F.j.u.-.5 =     ",
"        = %.x.p.A $ ,  .[ > X 5 R.R.P.j.b 0 q u y i J J p t d.U.c.:.L.P.N t p P J y y y 0 * $.J.U.!.v.$ O > :.2.;.o.5 : % ;     ",
"        > ;.i.x.v.>.; % = @ $ N.R.I.d.d q a J P I P V.C.V z d.U.c.:.K.L.N B T C.A.z T R u w 0 D G.U.E.| X = 9 8 > > 5 | %.5 =   ",
"        = 8 -.2.2.u.:.{ ; X A R.I.M.d t J R U U U Y C.C.B l d.U.c.:.K.L.N i R C.A.z R Z.H i V q O.K.T.G.% @ : v #.w.g.i.2.6 >   ",
"        = % = 1 8 9 X.-.> @ g.R.I.$.q T R V.R B.I P C.V.B l a.U.c.;.K.L.D B V.C.C.B U Z.J J V.J e h.U.T.n X 5 2.i.g.u.o.[ , =   ",
"      % 6 ;.} 2 = $ = , $ = G.Y.F.d u V.V.V.V.V.Y Y C.C.z u d.U.c.:.K.P.N B R Z.Z.i R Z.H J C.U 0 O.L.R.2.O > 9 4 , = = @ $     ",
"      : X.v.v.g.r.>.Z > O 2 L.Y.p.r B C.C.R V.V.J R C.C.B y g.U.c.:.K.P.[ B U Z.C.i R Z.H J V.E y j G.Y.g.# = 2 v 5 5 A Z 1     ",
"      :  .2.u.y.1.2.u.} @ Z L.U.$.p V C.C.T E C.Y R C.V.i k g.I.c.;.L.P.@.B B.C.C.B E Z.J J V.E B k m.U.v.= 5 2.i.p.j.M.p.8 :   ",
"      = , 1 5 8 1 5 [ , O { K.I.O.J L C.C.T R C.L E C.E i y a.U.c.:.K.I.O.l B.C.C.B E A.J J V.E H k g.P.c.> , { X.-.,.;.*., =   ",
"      % 2 A A &.O.A < $ O | L.L.D Y J V.C.J V.C.V R C.E i k g.U.c.:.K.P.+.y B.C.C.B E S.J J V.E H l d.U.b.< @ = = > , < , =     ",
"      = 9 y.g.v.g.u.%.= . o.L.L.m T J V.V.P V.C.J E C.E z k f.U.c.;.K.P.O.y E C.C.B R S.J H C.E J z i.U.m.< , #.:.a.M.n.h.| :   ",
"      : 8 o.;.%.X. .[ % . o.K.L.m P J V.V.J E C.V E C.R p k g.U.c.;.K.P...t R Z.C.i R Z.J B V.T H l u.I.b.2 , ;.2.i.v.g.2.| :   ",
"      = = ; > 2 2 5 v : . ..K.L.<.5.9.q.6.q.6.q.9.6.q.q.&.&.x.U.c.=.K.P.y.$.q.e.q.0.6.t.5.5.q.q.5.&.f.U.b., = > > , 3 1 5 > =   ",
"      = 1 A ;.p.r.p.r.2 .  .K.L.c.s.K.m.s.P.l.c.L.s.G.G.s.G.m.U.z.=.F.K.x.f.F.F.u.L.x.c.L.f.G.H.u.G.m.U.b., @ 5 n 6 A +.#.v =   ",
"      % 9 -.1.,.;.;.-.> O o.H.L.g.y.b.l.u.b.s.f.m.y.l.c.y.l.b.I.l.=.F.P.l.y.c.x.y.D.s.s.m.y.l.c.y.x.c.P.c.< - <.d.i.v.v.i.o.:   ",
"      = ; 1 8 9 7 4 7 - @ { L.L.X.f f k g g g k f g k g f h l.I.l.=.F.P.=.d g g k f g g g g k g g h f.I.x.< = ..X.X.=.;.-.[ =   ",
"      : ; 2 2 2 n m < # X { L.L.} u y s V i V s y B V p u g f.I.l.#.F.P.#.f V V V t V V u y V V u x s.I.x., $ : - = $ = = % =   ",
"      = Z y.i.g.x.g.i.6 @ n H.L.| Y B C.V.J C.V.B B.V.T V W l.I.s...F.P.=.r B.C.C.u U Z.I V V.B.V B f.I.l.- : :.0.:.=.>.0.n :   ",
"      = 9 ;.1.2.v.M.f.v @ n H.K.+.Y B A.V.J Z.V.B V.V.I J W l.I.s.O.F.P.=.y B.C.C.l B.Z.T B C.V.V B f.P.l., > <.l.g.i.u.i.| :   ",
"      = 4 7 ] *.;.;.o.1 @ 6 G.L.#.Y B A.V.J Z.V.B V.V.I J W k.I.s.[ D.P.;.k B.C.V.l B.Z.T B C.V.V ~ f.U.s., - o.1.;.-.*.X.8 -   ",
"      = = 2 > = > : % $ O 9 G.L.#.Y B A.V.J C.V.V V.V.I P W l.I.y.n D.P.,.k V.C.V.l B.A.T B C.V.V W k.P.f.: # - ; , > : - = =   ",
"      = ..p.r.>.r.r.:.5 @ 8 G.H.#.J V C.V.J Z.V.V V.V.P P Q l.I.y.[ F.P.,.k V.C.B.l B.Z.I B C.C.Y ! f.Y.s.: = n A | $.:.>.<     ",
"      : | i.v.x.u.u.2.{ @ 6 G.L.,.3.G 8.7.~ 8.7.@.7.7.4.4.@.l.I.y.n D.P.,.[ 8.8.7.N 8.8.4.~ 7.7.4.@.f.U.s.: > 2.s.i.u.f.x.Z =   ",
"      = ] ,.1.o.X.X.o.4 @ 5 G.H.l.f.G.m.k.K.l.c.K.k.F.D.f.F.D.I.<.n D.L.l.f.J.F.f.H.c.c.K.k.D.D.u.G.b.I.s.: % 8 9 8 4 Z ..2 :   ",
"      = ; 4 4 , - > - = @ 4 G.P.l.y.F.b.u.G.s.l.F.y.D.D.y.D.b.I.y.n D.L.l.y.D.D.u.G.s.f.G.u.D.F.u.D.b.U.u.: % > 5 5 c c c = =   ",
"      = 5 $.:.#.$.#.} : O 2 M.L.;.b b M M b M b b M M M b [ l.I.;.c D.L.,.b M N M b M M b b b b b A s.I.u.: > y.a.g.a.g.v.:.>   ",
"      - %.i.H.J.g.i.2.6 O 5 D.L.=.u t V V u a s t a V p u M l.U.,.8 D.L.=.r B B B t V V u t V B y x s.I.u.= , ,.i.i.2.2.2...%   ",
"      = 9 ;.2.2.o.X. .4 @ , F.L.;.B V V.R L V.V.B V.B.V I Q l.I.<.4 D.P.,.B V.C.B.u B.C.V V V.B.J W f.I.u.& > Z { { { { { 4 =   ",
"      = ; 4 9 8 , : = % O , D.L.;.V V C.V.Y V.V.B C.B.P R ! l.I.<.4 m.L.,.B C.V.B.B B.A.V V C.V.J Q f.I.y.% $ $ = 2 2 > > = =   ",
"      ; = < c A :.w.:.5 @ , D.K.:.B B C.B.J C.V.B Z.V.Y R ^ l.I.;.2 m.L.,.z V.V.T u B.A.T V C.C.J W f.I.y.% : >.a.j.j.a.h.#.:   ",
"      = ..2.i.i.i.v.i.n @ , G.K.:.B V C.B.P C.B.B C.V.Y R ^ l.I.<.1 D.L.,.B B.V.T i C.Z.P V C.C.J W f.Y.y.& , 2.i.u.g.M.j.;.;   ",
"      -  .;.,.;.*.-.o.1 O , M.K.;.B L C.B.P C.V.B C.V.Y R ^ l.I.=.< b.P.,.B C.V.B.B V.C.J V V.C.s C f.U.y.# - {  .;.y.y.1.o.-   ",
"      = ; 4 9 4 1 2 > % O , m.L.=.W W ' ) Q ' ) x ' ) ! / G k.I.=.< b.L.,.S _ ' / x _ ' ! W ) ' S F f.I.2.# @ @ $ # = > , > %   ",
"      = c v 2 m %.r.>.5 @ > m.H.l.d.m.b.l.F.l.z.F.g.m.m.k.D.c.U.=., b.L.l.f.m.m.l.J.l.c.F.g.m.D.f.m.x.I.2.@ = 6 } | +.;.0.#.-   ",
"      > 1.i.i.u.2.;.2.A @ > M.L.c.y.L.m.i.L.k.l.L.i.D.F.y.G.b.I.;.> n.L.x.i.F.D.i.L.k.l.L.i.D.F.u.G.b.I.2.# = 2.v.M.v.s.f.y.,   ",
"      - { ;.;.;.X. .-.9 @ > M.L.,.m [ D m O.m D O.N O.D m +.l.I.=.> b.L.<.m O.O.m O.D A O.m D D m | f.I.<.# = { ;.y.;.X.o.o.>   ",
"      = - > 3 , 4 , , ; + > m.K.=.t t p B t p p r p p t u M g.I.$.> b.L.;.g p p u w p p t u p p t x s.I.<.+ # = ; > > : = - =   ",
"      - n n 6 2 n #.A , @ : m.L.=.B B B.T B B.U z B.B.V T ^ k.I.$.: b.L.;.B B.B.U u R V.Y J B.R a W s.U.<.# = 5 Z &.0.w.:.5 =   ",
"      6 p.M.n.y.i.u.2.Z $ > M.K.:.B V C.R V C.R B Z.V.J R ^ k.U.#.> m.L.=.! Z.C.B.u C.C.R T C.C.B W s.U.<.@ - ;.u.j.M.x.i.>.;   ",
"    = , -.1.1.o.X.o.-.9 # & m.K.=.B V V.R B V.I B C.B.V R Q k.I.#.* b.L.;.B V.B.T u V.V.T Y B.V.B W s.I.:.+ = { o.X.o.o.X. .,   ",
"      = ; 1 , > ; , , = @ : M.H.,.O.F @.$.F @.@.D @.@.O.@.O.l.U.#.& b.L.<.O.@.@.@.N @.@.@.@.@.@.D O.s.I.:.# $ - ; = : : < : $   ",
"      2 %.&.&.#.#.&.&.1 O & M.P.b.D.J.L.I.I.T.T.I.I.P.L.F.c.F.I.#.& z.I.b.D.J.K.I.I.T.T.W.I.I.J.G.b.D.I.:.+ = m >.w.w.r.h.2.>   ",
"      6 i.i.v.v.u.2.2.6 O & m.U.I.U.U.I.U.I.I.U.I.I.I.U.I.U.I.U.$.& b.I.I.I.W.I.I.I.U.U.U.U.R.U.U.U.U.I.:.+ = o.g.x.y.2.2.-.>   ",
"      : 9 { { ..{ [ 9 > O & :.2.2.2.y.w.w.2.2.w.w.w.2.w.2.w.w.y.v & $.w.<.y.<.w.w.y.w.2.w.2.2.2.w.2.w.y.n + % 9  .{ { { ] 8 =   ",
"      % # @ @ @ # @ @ % @ & * * * * * * * * e * * * * * * * * e e e e e > * e * e * 0 > * * * * * * * * * & % = @ $ % = = % %   ",
"                                                                                                              %       % %       "
};
