/* XPM */
static char *_6463c742a694323c6ac7b9600cb6f7c6o5u0JidxBQIGObs[] = {
/* columns rows colors chars-per-pixel */
"64 64 186 2 ",
"   c None",
".  c #000000",
"X  c #0F0D04",
"o  c #110E05",
"O  c #1E0D0D",
"+  c #260E0F",
"@  c #221D09",
"#  c #29170E",
"$  c #3F1916",
"%  c #3C1619",
"&  c #361E1C",
"*  c #3E1A1A",
"=  c #3E1716",
"-  c #3A320F",
";  c #3B201F",
":  c #37201F",
">  c #2B240B",
",  c #352322",
"<  c #3C2322",
"1  c #3E2827",
"2  c #3D2A29",
"3  c #3E3131",
"4  c #401917",
"5  c #411B1A",
"6  c #401714",
"7  c #44201C",
"8  c #4A251B",
"9  c #4F2A1D",
"0  c #512C1D",
"q  c #56311E",
"w  c #5A341E",
"e  c #603B1F",
"r  c #431F20",
"t  c #511B2E",
"y  c #531C32",
"u  c #422324",
"i  c #452927",
"p  c #45272C",
"a  c #442C2B",
"s  c #492D2C",
"d  c #4D212F",
"f  c #4D2433",
"g  c #462B32",
"h  c #492D34",
"j  c #4A2F39",
"k  c #502133",
"l  c #423433",
"z  c #4A3635",
"x  c #4A323C",
"c  c #563D32",
"v  c #623D21",
"b  c #6C5D1E",
"n  c #61531C",
"m  c #6F601F",
"M  c #5F4133",
"N  c #664122",
"B  c #6A4623",
"V  c #724E25",
"C  c #775226",
"Z  c #795426",
"A  c #7E5A27",
"S  c #7E5A28",
"D  c #7F4E36",
"F  c #634534",
"G  c #746521",
"H  c #7F6E24",
"J  c #4E3B4B",
"K  c #493B44",
"L  c #5F365B",
"P  c #6E275B",
"I  c #4F495F",
"U  c #53455B",
"Y  c #55485F",
"T  c #524357",
"R  c #564B63",
"E  c #58516C",
"W  c #595472",
"Q  c #5A5878",
"!  c #65566F",
"~  c #805D2A",
"^  c #866229",
"/  c #8D6A2C",
"(  c #916D2C",
")  c #9A762E",
"_  c #9D7A30",
"`  c #897826",
"'  c #A48231",
"]  c #A98737",
"[  c #B18E34",
"{  c #B69336",
"}  c #BE9D38",
"|  c #B99636",
" . c #BBA336",
".. c #C4A23A",
"X. c #C4AA39",
"o. c #CEAD3C",
"O. c #C8A53A",
"+. c #D0AF3E",
"@. c #D5B43F",
"#. c #D6B53F",
"$. c #D5B43E",
"%. c #D8BB3F",
"&. c #DABD3F",
"*. c #D8B740",
"=. c #DDBC41",
"-. c #E3C242",
";. c #EAC945",
":. c #EECD46",
">. c #F0CF46",
",. c #F2D147",
"<. c #F3D247",
"1. c #F7D548",
"2. c #F7D649",
"3. c #F5D548",
"4. c #F6D549",
"5. c #F8D649",
"6. c #F9D749",
"7. c #F8D549",
"8. c #F8D649",
"9. c #F9D849",
"0. c #FAD849",
"q. c #FAD84A",
"w. c #FADA4A",
"e. c #FAD949",
"r. c #7C3B81",
"t. c #5E5F81",
"y. c #734582",
"u. c #605D82",
"i. c #5D6082",
"p. c #62648B",
"a. c #626A94",
"s. c #696596",
"d. c #67729F",
"f. c #6875A5",
"g. c #6A79AB",
"h. c #6776A6",
"j. c #912681",
"k. c #803781",
"l. c #A93497",
"z. c #B52EB3",
"x. c #C72EC8",
"c. c #C931CF",
"v. c #D132D6",
"b. c #DE34E9",
"n. c #E936F6",
"m. c #EB36F9",
"M. c #EA39FA",
"N. c #E736F4",
"B. c #9C5FCD",
"V. c #B94AD6",
"C. c #AC5BDA",
"Z. c #A251C4",
"A. c #9C6BDB",
"S. c #9568CD",
"D. c #A062D6",
"F. c #BF54E9",
"G. c #BE62F7",
"H. c #B16EF6",
"J. c #B66BF8",
"K. c #A879F6",
"L. c #A87AF9",
"P. c #B270F9",
"I. c #A274EA",
"U. c #C758F6",
"Y. c #C959F9",
"T. c #C063FA",
"R. c #6E82B9",
"E. c #7284B2",
"W. c #728AC4",
"Q. c #738DC9",
"!. c #7492CE",
"~. c #7694D4",
"^. c #7897D9",
"/. c #7897D9",
"(. c #7A9DE2",
"). c #7F9FEA",
"_. c #7CA0E7",
"`. c #7DA4EC",
"'. c #7FA7F2",
"]. c #7EAEF9",
"[. c #7EAEF6",
"{. c #7FB0FB",
"}. c #80AAF5",
"|. c #83A7F9",
" X c #82ACFA",
".X c #83A7F6",
/* pixels */
"                                                                                                                                ",
"                                                                                                                                ",
"                                  3 r 5 * 7 * * 5 ; * * * 5 * 5 * * * ; * * 5 * 5 5 5 5 5 * 5 r                                 ",
"                                  g * 5 5 5 * 5 5 5 5 5 5 5 5 5 5 5 5 5 5 5 5 5 5 5 5 5 5 5 5 7                                 ",
"                      i 5 5 7 5 5 r 5 5 5 5 5 5 5 5 5 5 5 5 5 5 5 5 5 5 5 5 5 5 5 5 5 5 5 5 5 5 5 7 * ,                         ",
"                      u 5 5 5 5 5 5 5 5 5 5 5 5 5 5 5 5 5 5 5 5 5 5 5 5 5 5 5 5 5 5 5 5 5 5 5 5 * * 5 <                         ",
"                * ; u 5 * 5 5 5 5 5 5 5 5 4 5 5 5 5 5 5 5 5 5 5 5 5 5 5 5 * 5 5 5 5 5 5 5 5 5 5 * 5 5 5 * * <                   ",
"              l 5 5 5 5 5 5 5 5 5 5 5 5 5 5 5 5 5 5 5 5 5 5 5 5 5 5 5 5 5 5 5 5 5 5 5 5 5 5 5 5 5 5 5 5 5 5 <                   ",
"        2 % & 7 5 5 5 5 5 5 5 5 5 5 5 5 5 5 5 5 5 5 5 5 5 5 5 5 5 5 5 5 5 5 5 5 5 5 5 5 5 5 5 5 5 5 5 5 5 5 * % % : ,           ",
"        a * 5 5 5 5 5 5 5 5 5 5 5 5 5 5 5 5 5 5 5 5 5 5 5 5 5 5 5 5 5 5 5 5 5 5 5 5 5 5 5 5 5 5 5 5 4 5 5 5 * 5 5 * 2           ",
"        a 4 5 5 5 5 5 5 5 5 5 5 4 5 5 5 5 5 5 5 5 5 5 5 5 5 5 5 5 5 5 5 5 5 5 5 5 5 5 5 5 5 5 5 5 5 * 4 5 5 5 4 5 * 1           ",
"        a $ 5 5 5 5 5 5 5 5 5 5 5 5 5 5 5 5 5 5 5 5 5 5 5 5 5 5 5 5 5 5 5 5 5 5 5 5 5 5 5 5 5 5 5 5 5 5 5 * * 5 5 5 ,           ",
"        a 5 5 5 5 5 5 5 5 5 Z ' ' ^ 8 5 8 / ' _ V 5 * 5 5 5 5 5 5 5 5 5 5 5 5 5 5 5 5 5 5 5 5 5 5 5 5 5 4 5 5 5 5 5 u ; < ,     ",
"        s * 5 5 5 5 5 5 5 5 ] w.q.} 8 = 0 @.w.q._ * * * 5 5 5 5 5 5 5 5 5 5 5 5 5 5 5 5 5 5 5 5 5 4 5 5 * 5 5 5 5 5 5 5 * :     ",
"        a ; 5 u 5 5 5 5 5 5 ] 7.q.} 8 % 0 o.6.6.../ / ~ 8 5 5 5 5 5 5 5 5 5 5 5 5 5 5 5 5 5 5 5 5 4 5 5 5 5 5 5 5 5 * 5 $ <     ",
"              z 5 5 5 * $ 4 ' 7.q.} 5 % 0 o.6.6.7.7.6.*.0 5 5 5 5 5 5 5 5 5 5 5 5 5 5 5 5 5 5 5 5 5 5 5 5 5 * 5 5 5 5 5 $ <     ",
"              z 5 * 8 B C Z } 1.6.o.S V ~ *.q.7.6.1.0.*.0 * 5 5 5 5 5 5 5 5 5 5 5 5 5 5 5 5 5 5 5 5 5 5 * 5 5 5 5 5 5 5 4 r     ",
"              z 5 5 q o.,.,.1.6.7.1.,.>.,.7.7.6.6.1.0.#.0 * 5 5 5 5 5 % % * % * * 5 5 5 5 5 5 5 5 5 5 5 5 5 5 % 4 5 5 5 5 <     ",
"              z * * q @.q.6.1.6.6.6.6.6.7.6.6.7.1.6.1.+.q 5 5 5 5 5 0 v N N N N N 0 5 5 5 5 5 5 5 5 5 * 5 5 5 4 5 5 5 5 * ;     ",
"              z 5 * q @.0.6.6.6.6.6.6.q.6.7.6.7.1.1.0.*.q 5 5 5 4 4 ~ -.;.;.;.;.;.( 5 5 5 5 5 5 5 5 5 4 4 5 5 5 4 5 4 5 5 :     ",
"              z * * w @.9.9.;.*.%.*.%.*.=.>.6.6.1.1.0.*.q 4 5 0 w q ( 1.0.1.0.0.1.) % * 5 5 5 5 5 5 5 4 5 5 5 5 5 5 5 5 4 ;     ",
"              z * % q *.9.<.H @ @ @ @ @ - X.6.6.6.6.0.*.q 5 5 ] =.=.-.7.1.1.1.0.1.) * 5 5 5 5 5 5 5 5 5 5 5 4 5 5 5 5 5 4 &     ",
"              M 9 8 N #.9.<.G o o o X X > X.6.6.1.6.0.#.0 5 5 | 6.6.6.6.6.1.;.;.;.( % 5 5 5 5 5 5 5 5 5 5 4 5 4 5 5 5 5 * <     ",
"        l u p S o.o.$.:.9.1.=.X.X.X.X.X.o.:.6.6.6.1.0.#.0 5 8 | 6.6.6.6.0.-.A N N 0 5 5 5 * 5 5 5 5 5 4 5 5 5 5 5 5 5 5 = <     ",
"        a 4 * ^ 3.0.0.6.2.2.q.q.0.9.0.q.6.6.6.2.6.6.6.*.w 5 9 | q.6.1.,.,.=.w % * 5 5 5 5 5 5 5 5 5 5 5 5 5 5 5 5 5 5 5 * <     ",
"        a $ * ^ <.6.1.6.1.1.1.6.9.9.9.1.6.6.6.2.6.4.6.;.O.} ..-.6.6.O.S C V 8 % 5 5 5 5 5 5 5 5 5 5 5 5 5 * 5 5 5 5 5 4 4 <     ",
"        s * % ^ <.6.6.6.1.9.1.1.2.2.1.2.1.2.2.6.6.7.2.6.0.0.q.6.6.6.[ 5 % % 5 * 5 5 5 5 5 * 5 5 5 4 5 5 5 5 * 5 5 5 5 * $ <     ",
"        s $ * q b b b b b m  .9.2.2.2.1.1.2.6.6.7.6.2.4.1.6.,.[ / / V 5 5 5 5 5 5 5 5 5 5 5 5 5 5 5 5 5 5 5 5 5 4 5 u p <       ",
"        s 4 5 + . . . . . . ` 9.2.2.2.2.2.2.1.2.4.2.2.2.2.6.>.S % % * 4 5 5 5 5 5 5 5 5 5 5 5 5 5 5 5 5 5 * 5 * 5 * 2           ",
"        l < u , O O # n G G  .9.6.2.2.q.6.6.0.0.4.6.6.2.2.2.>.S % 5 5 5 5 5 5 5 5 5 5 5 5 5 5 5 5 5 5 < u < i 7 * * 2           ",
"              z 5 * q $.w.0.0.9.q.q.w.w.q.q.0.q.6.q.q.q.6.6.>.S % % 5 5 5 5 5 5 * 5 5 * 5 5 5 * 5 5 5 :       i * 5 2           ",
"                i u c ' | | | { { { { { { { { { { { { ..>.6.,.] S ~ B 5 5 5 5 5 5 u u i u 5 5 5 u u u ,       a u u             ",
"                      i 5 5 5 5 5 5 5 5 7 5 5 5 5 5 5 v -.6.7.4.1.1.[ 5 5 5 5 5 5 s       u 5 5 ,                               ",
"                      a u i i u i i i i u u i p u 5 % v -.6.4.6.1.1.{ 7 4 5 u u u         i u i                                 ",
"                                                < 5 * v -.6.6.6.6.0.{ 7 * r                                                     ",
"                                                < 4 5 w ..*.*.*.*.*._ 5 5 8                                                     ",
"                                                < * 5 5 0 0 9 9 0 0 8 5 5 r                                                     ",
"                                                2 5 5 5 5 4 5 r p g u 5 * 5                                                     ",
"                                          < 5 r 5 5 5 5 5 4 r a.~.~.p.r 5 5 u 5 u <                                             ",
"                                          a r r u r u r r r p g. X Xf.r 5 5 5 u u s                                             ",
"                                    < < g a.R.R.R.R.R.R.R.R.R.(. X Xf.5 4 p d.R.g.I < 5 <                                       ",
"                                  z * $ p W. X X X X X X X X X|. X Xf.r 4 g ^. X Xt.5 5 <                                       ",
"                                  l 5 * d Z.T.G.G.G.G.C.Q E W Q. X Xf.5 4 k C.T.G.r.* 5 <                                       ",
"                                  l 7 * t x.m.M.m.m.M.x.y 6 r g. X Xf.r 4 y v.m.N.j.$ 5 u                                       ",
"                            2 & & K i.p.s.A.P.P.H.H.P.B.f * r g. X Xf.r $ f A.H.H.! 5 * u                                       ",
"                            2 * % U `.].].].].].].].].~.g 4 r g. X Xf.r 5 g /.{.|.u.4 5 u                                       ",
"                            2 * * L I.L.K.K.L.L.L.L.L.S.f 5 r W f.d.E 5 $ f A.L.P.y.* * u                                       ",
"                            i * 4 P b.n.n.n.n.m.m.M.M.c.y = 4 % * * 5 5 $ y v.n.n.j.* * u                                       ",
"                            i * $ P F.U.U.U.U.Y.V.z.z.l.D C Z Z Z Z e 5 5 f V.Y.U.k.4 * u                                       ",
"                            i 5 4 Y `..X|.|.|..Xp.5 r v =.1.>.,.<.3.[ 8 % h ^. X.Xu.4 5 <                                       ",
"                            2 * 4 U `. X X]. X].u.4 4 v -.6.6.6.7.6.[ 5 4 h ~. X}.i.4 5 u                                       ",
"                            2 * 5 Y `. X X X X.Xp.6 6 v -.q.6.6.7.q.{ 5 4 g ^. X}.i.4 * u                                       ",
"                            2 7 $ U !./.(.'..X Xs.g h F *.=.-.-.-.-.] z h J /. X}.Q 5 5 u                                       ",
"                                  T x z J !. X X).^.^.g.c w w q w w ! !.~./..X].}.p.4 5 u                                       ",
"                                  l * $ p R.`.`.'. X X~.K r t u u u E .X X}.`.`._.Q 5 5 <                                       ",
"                                          J J J d.]. X'.Q.W.W.W.W.W.~.}. X_.R J J K                                             ",
"                                          u = 6 Q }.}.}.[..X.X.X.X}..X}.}.^.h 6 5                                               ",
"                                          < 5 5 x Y Y Y Y Y Y Y Y Y Y Y Y T u 4 5                                               ",
"                                          < 5 5 5 4 4 = $ 4 4 4 4 4 4 4 4 5 5 5 5                                               ",
"                                          1 < < < 4 5 5 5 5 5 5 5 5 5 5 5 5 ; : <                                               ",
"                                                < * 5 5 = 5 5 5 5 5 5 5 5 u                                                     ",
"                                            a a u 5 5 5 5 5 5 5 5 5 5 5 4 5                                                     ",
"                                          u 5 5 4 5 5 5 * 5 5 5 5 5 5 5 5 5                                                     ",
"                                          < * < < < ; < < < * & < * & ; < <                                                     "
};
