/* XPM */
static char *_7874f95d59c4e92b1f94264137c4eba4ixWRaZxX1gEKNQT[] = {
/* columns rows colors chars-per-pixel */
"64 64 176 2 ",
"   c None",
".  c #020101",
"X  c #090802",
"o  c #1B1312",
"O  c #161515",
"+  c #2D1C1C",
"@  c #2C1212",
"#  c #3E1616",
"$  c #3E1916",
"%  c #3D1719",
"&  c #331F1E",
"*  c #3E1A1A",
"=  c #341914",
"-  c #2C260C",
";  c #3C201F",
":  c #2A2020",
">  c #352222",
",  c #3D2322",
"<  c #362B2A",
"1  c #3C2C2B",
"2  c #3D3233",
"3  c #401917",
"4  c #411B1A",
"5  c #45211C",
"6  c #4A241B",
"7  c #4E281C",
"8  c #512C1C",
"9  c #463D14",
"0  c #56311E",
"q  c #59331E",
"w  c #5D381F",
"e  c #441D21",
"r  c #4E1B2B",
"t  c #5B1E3B",
"y  c #422423",
"u  c #45262A",
"i  c #442C2B",
"p  c #4A2729",
"a  c #4B302D",
"s  c #5F3A20",
"d  c #462D34",
"f  c #482C35",
"g  c #4A2E3A",
"h  c #54243B",
"j  c #4A313B",
"k  c #4B3A39",
"l  c #473535",
"z  c #613C21",
"x  c #4A4015",
"c  c #65571C",
"v  c #6E4A22",
"b  c #684322",
"n  c #724E26",
"m  c #7E5927",
"M  c #795426",
"N  c #6E5535",
"B  c #7E6F22",
"V  c #711F58",
"C  c #4D3745",
"Z  c #4E3A4B",
"A  c #4A3946",
"S  c #4E3E50",
"D  c #503E51",
"F  c #583853",
"G  c #623158",
"H  c #642E59",
"J  c #514154",
"K  c #524459",
"L  c #6F5745",
"P  c #7C6345",
"I  c #574E68",
"U  c #564C66",
"Y  c #5B5574",
"T  c #5C5C7D",
"R  c #825D28",
"E  c #825E27",
"W  c #87632A",
"Q  c #8B672A",
"!  c #8A6B29",
"~  c #95712D",
"^  c #98742F",
"/  c #9D7B2E",
"(  c #9E7B30",
")  c #986D36",
"_  c #A27F31",
"`  c #973B71",
"'  c #98832B",
"]  c #97832B",
"[  c #A08C2D",
"{  c #A68331",
"}  c #AD8B34",
"|  c #A88532",
" . c #B18E35",
".. c #A99130",
"X. c #B69436",
"o. c #B99636",
"O. c #B79B36",
"+. c #BCA436",
"@. c #C19F38",
"#. c #C3A13A",
"$. c #C8A63A",
"%. c #CDAB3C",
"&. c #D1AF3D",
"*. c #CFB43C",
"=. c #D6B33F",
"-. c #D8B73F",
";. c #D6B93E",
":. c #DCBC41",
">. c #E1BF42",
",. c #DEC141",
"<. c #E4C443",
"1. c #E8C744",
"2. c #EDCD45",
"3. c #F0CF47",
"4. c #F2D147",
"5. c #F7D548",
"6. c #F8D649",
"7. c #FAD949",
"8. c #5E5D81",
"9. c #5B6388",
"0. c #5E6C97",
"q. c #65608A",
"w. c #636A93",
"e. c #6B759F",
"r. c #7D60AA",
"t. c #6A79AA",
"y. c #6F72AB",
"u. c #6C7FB4",
"i. c #96298B",
"p. c #8A3288",
"a. c #9E3AA7",
"s. c #AE2CA9",
"d. c #BC2EBD",
"f. c #A03AA9",
"g. c #8D4FAA",
"h. c #9C4FBD",
"j. c #9149A9",
"k. c #856ABD",
"l. c #CC32D1",
"z. c #DD32E5",
"x. c #EA36F7",
"c. c #E43AF6",
"v. c #EB36F8",
"b. c #E53AF8",
"n. c #EC38FA",
"m. c #A55BD2",
"M. c #B645CD",
"N. c #8E74D2",
"B. c #B35EE6",
"V. c #BC63F7",
"C. c #B56CF7",
"Z. c #BD64F9",
"A. c #B66DF9",
"S. c #B066E9",
"D. c #D34DF7",
"F. c #D34EF8",
"G. c #6E82B5",
"H. c #6F87BD",
"J. c #728BC6",
"K. c #728BC8",
"L. c #7594D4",
"P. c #7796D9",
"I. c #799ADD",
"U. c #7897D8",
"Y. c #7C8CD4",
"T. c #7A9DE0",
"R. c #7CA0E6",
"E. c #7DA3EB",
"W. c #7EA6F1",
"Q. c #7FACF8",
"!. c #8583D7",
"~. c #9D86F7",
"^. c #9E87F9",
"/. c #88A2FA",
"(. c #81ACFA",
"). c #83A5F5",
/* pixels */
"                                                                                                                                ",
"                                y 4 , , ; , , , , * , , , , ; , , , , , , ; ; , , y , , ; , , , ,                               ",
"                                y 4 4 4 3 4 3 4 3 * * 3 4 3 4 4 3 3 4 4 4 3 3 3 4 3 4 4 3 3 4 4 * 2                             ",
"                        1 , , y 4 4 4 4 3 4 4 4 4 4 4 3 4 4 3 4 3 4 4 4 4 4 4 4 4 4 4 4 3 4 4 4 * u , , , 1 y , i               ",
"                        , 3 3 4 4 4 4 4 4 4 4 4 4 4 4 4 4 4 e 4 4 4 4 4 4 4 4 4 4 4 4 4 4 4 4 4 4 4 5 * * 4 4 * i               ",
"                  , , , y 3 4 4 4 4 4 4 4 4 4 4 4 4 4 4 4 4 4 4 4 4 4 4 4 4 4 4 4 4 4 4 4 4 e 4 4 4 4 4 * 4 4 * y , , >         ",
"                > * 4 4 4 4 4 4 4 4 4 4 4 4 4 4 4 4 4 4 4 4 4 4 4 4 4 4 4 4 4 4 4 4 4 4 4 4 4 4 4 4 4 4 4 * 4 4 4 4 * * l       ",
"              > , 3 4 4 4 4 4 4 4 4 4 4 4 4 4 4 4 4 4 4 4 4 4 4 4 4 4 4 4 4 4 4 4 4 4 4 4 4 4 4 4 4 4 * 4 4 4 4 4 4 4 * i       ",
"        < * 4 4 * 4 4 4 e 4 4 4 4 4 4 4 4 4 4 4 4 4 4 4 4 4 4 4 4 4 4 4 4 4 4 4 4 4 4 4 4 * 4 4 4 * 4 * 4 4 4 4 4 4 4 4 4 4 * y ",
"        < * 4 4 4 4 4 4 * 4 4 4 4 4 4 4 4 4 e 4 4 4 4 4 4 4 4 4 e 4 4 4 4 4 4 4 * 4 4 * * * 4 4 4 4 4 4 4 4 4 4 4 4 4 4 4 4 * y ",
"        < * 4 4 4 4 4 4 4 4 4 4 4 4 4 4 4 4 4 4 4 4 4 4 4 4 4 4 4 4 4 4 4 4 4 3 4 4 * * % % 4 4 4 4 % % * 4 4 4 4 4 4 4 4 4 3 y ",
"        < * 4 4 4 * 4 4 4 4 4 4 4 4 4 4 4 4 4 4 4 4 4 4 4 4 4 4 4 4 4 4 4 4 4 3 4 4 7 s s 7 4 4 4 7 0 s 8 4 4 4 4 4 4 4 3 3 $ y ",
"  1 * 5 y 3 4 3 4 4 4 4 4 4 4 4 4 4 4 4 4 4 4 4 4 4 4 4 4 4 4 4 4 4 4 4 4 4 * * * b %.:.:.Q 4 3 7 } :.:.O.8 3 4 4 4 4 4 4 4 4 y ",
"  u * * 4 4 4 4 4 3 4 4 4 4 4 4 4 4 4 4 4 4 4 4 4 4 4 4 4 4 4 4 4 4 4 4 4 5 5 4 5 M 1.6.7.( 4 * 6 #.7.7.:.q 4 4 4 $ 4 4 4 4 * y ",
"  , * 4 4 4 4 4 4 4 4 4 4 4 4 4 4 4 4 4 4 4 4 4 4 4 4 4 4 4 4 4 4 4 4 4 * 7 | :.%.:.3.6.6./ 3 3 6 @.7.7.;.0 $ $ 4 * 4 * d       ",
"  y 3 4 4 4 4 4 4 4 4 4 4 4 4 4 4 4 4 4 4 4 4 4 4 4 4 4 4 4 4 4 4 4 4 4 * 8 $.7.6.6.6.6.6./ 4 4 7 @.7.7.:.q 3 5 4 4 4 * k       ",
"  y 4 4 4 4 4 4 4 4 4 4 4 4 4 4 4 4 4 4 4 4 4 4 4 4 4 4 4 4 4 4 4 4 4 4 3 7 $.6.6.5.6.6.5.:. . .X.<.5.6.2.o. .X.Q 5 4 * k       ",
"  , 4 4 4 4 4 4 4 4 4 4 4 4 4 4 4 4 4 4 4 4 4 4 % % 4 % 4 4 4 4 4 4 4 4 4 7 %.6.5.5.6.6.5.7.7.7.7.6.5.5.6.7.6.7.o.6 4 * k       ",
"  y * 4 4 4 4 5 4 4 4 4 4 4 4 4 4 4 4 4 4 4 4 R _ ( ( _ ( _ M 4 4 4 4 4 4 8 $.6.5.6.5.6.5.5.5.6.6.6.6.6.6.6.5.7.X.5 3 * k       ",
"  u * 4 4 3 4 * 4 4 4 e 4 4 4 4 4 4 4 4 4 3 6 o.6.6.6.7.6.7.X.4 % % 4 3 4 7 $.7.6.6.5.6.6.6.7.7.7.7.7.7.7.6.5.7.X.6 * 4 k       ",
"  y 4 4 4 4 4 4 4 4 4 4 4 4 4 4 4 4 4 4 4 4 5 o.7.7.6.6.6.6.:.Q W W z 4 4 7 $.7.5.5.5.6.6.%.' ] ' ' ' ] ..2.5.7.X.6 * * k       ",
"  y 4 4 4 4 4 4 4 4 4 4 4 4 4 4 4 4 4 4 4 4 6 o.7.7.7.6.6.3.3.6.5.5.~ 4 4 7 $.7.6.5.6.5.6.B X . . . . . - ;.7.7.X.4 % * k       ",
"  y * 4 4 4 4 4 4 4 4 4 4 4 4 4 4 4 4 4 4 3 4 ^ @.@.:.3.6.6.6.6.6.6.~ % 3 7 $.6.5.6.5.5.6.[ 9 9 9 9 9 9 c ,.5.7.$.M n n N       ",
"  1 4 4 4 4 4 4 4 4 4 4 4 4 4 4 4 4 4 4 4 4 4 4 4 4 q >.7.6.6.6.6.6.~ % 3 7 $.6.6.5.6.6.5.5.3.2.2.2.2.2.2.5.5.5.5.4.3.2.W y 4 u ",
"  , 3 4 * 4 4 4 4 4 4 4 * 4 4 4 4 4 4 4 4 4 4 * 4 * q O.:.:.:.6.6.6.| z z v :.3.6.5.6.6.5.6.6.6.7.5.7.5.7.5.5.7.5.6.6.4.Q * 3 y ",
"  y 4 3 4 4 4 4 4 4 4 4 4 4 4 4 4 4 4 4 4 4 5 4 4 3 4 8 7 7 R 3.6.6.2.1.1.1.3.5.6.5.6.6.6.5.5.6.5.5.5.5.5.7.7.7.7.6.7.4.Q * 3 y ",
"  , * y 5 * 4 4 4 4 4 4 4 4 4 4 4 4 4 4 4 4 4 4 4 4 4 3 4 % M >.1.1.3.6.6.6.5.6.6.6.6.5.5.6.6.5.5.5.4.7.4.<.,.,.<.<.,.,.R * 3 y ",
"        1 * 4 4 4 4 4 4 4 4 4 4 4 4 4 4 4 4 4 4 4 4 4 4 4 4 6 s z s  .5.6.6.6.6.5.6.6.6.6.6.6.5.6.5.7.7.;.x - - - - - - = 3 * y ",
"        < * * * y * 4 4 4 4 4 4 4 4 4 4 4 4 4 4 4 4 4 4 4 4 4 4 4 % _ 5.6.5.5.6.5.5.5.6.6.6.6.6.7.6.6.7.*.- X . X . . . @ 4 * y ",
"        < 4 * 5 a     1 y 4 * * 4 4 4 4 4 4 4 4 4 4 4 4 4 4 4 4 4 % _ 5.6.6.6.6.5.5.6.6.6.5.6.5.5.6.5.6.2.+.O.O.! = @ @ 1       ",
"        < , * * l       , 4 4 5 4 4 4 3 4 4 4 4 4 4 4 4 4 4 4 4 4 4 _ 5.6.6.5.5.5.5.5.5.5.5.5.5.5.5.5.5.5.7.7.7.X.5 * 5 k       ",
"          i i i           i i i y 4 4 p i i d y 4 4 4 3 4 3 b }  . .:.6.6.2._ R W W W W W W W W W W W W W W W Q N l i i         ",
"                                y 3 4 u       y 4 4 4 3 3 $ W 4.6.6.6.6.6.1.v % * * % * * * * * % * * * * * * $ i               ",
"                                i i a           a i u y 4 $ m 2.6.6.6.6.6.1.v % 3 y i u i u i i u i i u i i i u l               ",
"                                                      p $ * W 4.7.7.7.7.7.1.v * 3 ,                                             ",
"                                                      y 3 * b }  . . . . .{ s * * y                                             ",
"                                                      p 3 4 4 3 3 3 4 3 4 4 4 4 3 ,                                             ",
"                                                      y 4 3 u J J J f 3 4 4 4 4 * y 2                                           ",
"                                              y * * 4 4 4 3 U R.).E.T # $ 3 * 3 3 3 4 3 * <                                     ",
"                                              l j j d 5 4 3 I W.(.(.w.g g j j j j j j j f 2                                     ",
"                                      & ; 4 u 9.P.T.H.g 3 3 I W.(.(.E.I.I.I.I.I.I.I.I.I.I.T ; * ; 2                             ",
"                                      & 3 3 y y././.Y.g 3 3 I W.(.(.).T.R.R.)././././././.q.3 * * l                             ",
"                                      & 4 3 e f.F.F.M.h 3 3 I ).(.(.w.C C F M.F.D.D.F.D.F.p.* * * 2                             ",
"                                        4 3 e s.b.n.l.h 3 * I E.(.(.T $ = r d.c.c.c.c.c.c.i.y e , 2                             ",
"                                        e 4 e r.~.^.N.h 3 $ I E.(.(.8.3 3 p k.^.~.~.~.~.~.!.G.u.0.A & * >                       ",
"                                        4 * y t.(.(.L.j 3 3 I E.(.(.8.3 4 u J.(.Q.Q.Q.Q.Q.Q.(.Q.R.K $ $ y                       ",
"                                        3 4 e j.Z.Z.m.h 3 3 g Y Y Y C 3 * r h.Z.V.V.V.V.V.V.V.V.B.G $ * y                       ",
"                                        4 4 e s.v.v.l.t * 4 4 # # # # % % r d.n.v.v.v.x.v.v.x.v.z.V $ * y                       ",
"                                        4 4 e g.A.A.m.h $ * s ~ ^ ^ ^ ^ ^ ) ` i.i.a.S.A.C.A.A.A.S.G $ 4 y                       ",
"                                        4 4 e t.(.(.L.j 3 * E 4.7.7.5.7.7.1.v # # D T.(.Q.(.(.(.R.K 3 3 y                       ",
"                                        4 4 y t.(.(.L.j 3 $ E 4.5.5.7.7.7.<.v $ # D T.(.(.(.(.(.E.K $ 3 y                       ",
"                                        4 4 y t.(.Q.L.j # # E 4.6.7.7.7.7.1.v # 3 D I.(.(.(.(.(.E.K 3 3 y                       ",
"                                        4 3 y t.(.(.U.U Z Z P $.%.%.%.%.%.@.L C C Y T.(.(.I.J.J.G.J 5 , ,                       ",
"                                        4 3 y t.(.(.(.E.E.E.e.p 7 6 6 6 6 a G.).E.E.(.(.Q.w.u y 1 l                             ",
"                                        ; * , 9.L.P.I.).Q.(.G.j l l f g f Z K.(.(.W.T.P.L.T ; * *                               ",
"                                              i l f D I.(.(.W.I.I.T.T.!.I.T.).(.(.K.C f d l                                     ",
"                                              p 3 # g J.).T.T.T.R.E.E.E.E.E.T.E.E.u.u 3 $ ,                                     ",
"                                              y 4 3 e C C Z Z C C C C C C C C C C j 4 4 $ <                                     ",
"                                              p 4 4 4 3 4 3 4 4 3 3 3 3 3 3 3 3 * 3 4 4 * >                                     ",
"                                                    y y 3 3 4 3 3 4 4 4 4 4 4 3 4 y + o o o                                     ",
"                                                      p 4 4 4 4 3 4 4 4 4 4 4 4 3 y O . . .                                     ",
"                                                      y 4 4 4 4 4 4 4 4 4 4 4 4 3 y > + + :                                     ",
"                                                      p 4 3 3 4 4 4 * 4 4 3 4 3 3 3 3 4 * 1                                     ",
"                                                      1 , , , , ; ; , , , , ; y , 1 y , y <                                     "
};
