/* XPM */
static char *friskleft1675602736[] = {
/* columns rows colors chars-per-pixel */
"64 64 226 2 ",
"   c None",
".  c #010101",
"X  c #0B0404",
"o  c #0C0A04",
"O  c #01060C",
"+  c #140505",
"@  c #140A05",
"#  c #1A0C07",
"$  c #1A1409",
"%  c #040B13",
"&  c #040E18",
"*  c #08121A",
"=  c #181012",
"-  c #230A08",
";  c #25160A",
":  c #3A190C",
">  c #351A0C",
",  c #2D0F12",
"<  c #25200D",
"1  c #29230F",
"2  c #292512",
"3  c #382A12",
"4  c #3A2F15",
"5  c #061422",
"6  c #07192C",
"7  c #081E32",
"8  c #16252C",
"9  c #213439",
"0  c #282A2A",
"q  c #451B0D",
"w  c #470911",
"e  c #590A15",
"r  c #420B0D",
"t  c #5D2712",
"y  c #5F2812",
"u  c #552311",
"i  c #483518",
"p  c #58371A",
"a  c #4C2411",
"s  c #622913",
"d  c #662B16",
"f  c #732D19",
"g  c #6B3318",
"h  c #693619",
"j  c #713C1C",
"k  c #7C3E1C",
"l  c #733819",
"z  c #62260E",
"x  c #5A1320",
"c  c #4E302E",
"v  c #693321",
"b  c #732632",
"n  c #6C181D",
"m  c #4C431B",
"M  c #544A1E",
"N  c #584D1E",
"B  c #50471C",
"V  c #5A501F",
"C  c #77421F",
"Z  c #78431E",
"A  c #66481F",
"S  c #5A4F20",
"D  c #564A26",
"F  c #5C5122",
"G  c #5A512B",
"H  c #524E30",
"J  c #7B4520",
"K  c #7D4A23",
"L  c #754621",
"P  c #635222",
"I  c #6A5C29",
"U  c #675929",
"Y  c #6A4F23",
"T  c #776933",
"R  c #74652F",
"E  c #0A2B49",
"W  c #123859",
"Q  c #133251",
"!  c #0C3E6B",
"~  c #623F4A",
"^  c #104674",
"/  c #264A66",
"(  c #4E564E",
")  c #6E4B56",
"_  c #54676D",
"`  c #686A6A",
"'  c #64645A",
"]  c #891816",
"[  c #941A18",
"{  c #971E20",
"}  c #893127",
"|  c #B82822",
" . c #922D1D",
".. c #C83029",
"X. c #D9312A",
"o. c #D7322A",
"O. c #CA2E27",
"+. c #80421F",
"@. c #814D24",
"#. c #855327",
"$. c #8A5527",
"%. c #865428",
"&. c #895628",
"*. c #8D5829",
"=. c #945C2A",
"-. c #995E2C",
";. c #975527",
":. c #9A4326",
">. c #A65E2B",
",. c #9D612D",
"<. c #887739",
"1. c #937F3D",
"2. c #A5662F",
"3. c #A9662E",
"4. c #AB6931",
"5. c #B86D32",
"6. c #BB7335",
"7. c #C17636",
"8. c #C77B39",
"9. c #D07F3A",
"0. c #877E4D",
"q. c #96556B",
"w. c #975871",
"e. c #8E526A",
"r. c #A15764",
"t. c #974F58",
"y. c #94813E",
"u. c #AA8C3C",
"i. c #D4823B",
"p. c #DA863D",
"a. c #DD883E",
"s. c #CF813F",
"d. c #90854F",
"f. c #AB9449",
"g. c #AD9650",
"h. c #BFA457",
"j. c #D18240",
"k. c #C8AA59",
"l. c #D4B75F",
"z. c #CAAA54",
"x. c #D6BA63",
"c. c #CCB76F",
"v. c #DCC678",
"b. c #E5C668",
"n. c #E9C869",
"m. c #E8CC7B",
"M. c #0E518B",
"N. c #10528B",
"B. c #0E5A9A",
"V. c #11538D",
"C. c #2B5B91",
"Z. c #316488",
"A. c #2A6695",
"S. c #306295",
"D. c #0F5FA2",
"F. c #1166AD",
"G. c #1765A7",
"H. c #0C69B7",
"J. c #0C6CBA",
"K. c #056BBB",
"L. c #126CB7",
"P. c #116CB9",
"I. c #196BB6",
"U. c #1771BC",
"Y. c #1C72BB",
"T. c #0D67AF",
"R. c #296AA7",
"E. c #2176BD",
"W. c #2578BB",
"Q. c #337ABC",
"!. c #2F72A8",
"~. c #4E729D",
"^. c #4B6889",
"/. c #2C7FC0",
"(. c #237BC0",
"). c #B76986",
"_. c #C97396",
"`. c #C2708E",
"'. c #3E80BF",
"]. c #5F919F",
"[. c #749197",
"{. c #678892",
"}. c #6B92AC",
"|. c #6AA3B3",
" X c #67A0B0",
".X c #418CBD",
"XX c #2C82C3",
"oX c #3386C4",
"OX c #3689C6",
"+X c #3F90C9",
"@X c #4798CD",
"#X c #4C94CC",
"$X c #5AA9D5",
"%X c #55A0CB",
"&X c #6BB7DC",
"*X c #70BDDF",
"=X c #6BAAD5",
"-X c #71BFE0",
";X c #7EC5D6",
":X c #7DCBE5",
">X c #78C4E3",
",X c #82A6AF",
"<X c #B1D0B9",
"1X c #E4CC87",
"2X c #91BAD2",
"3X c #86CADB",
"4X c #9AD6DB",
"5X c #83CFE7",
"6X c #88D2E4",
"7X c #84D2E9",
"8X c #89D6EC",
"9X c #8BD8EC",
"0X c #87D8EE",
"qX c #96DBEC",
"wX c #8DDCF1",
"eX c #ACD6E5",
"rX c #BCE8F4",
"tX c #B7E5F2",
"yX c #A9E2F1",
"uX c #ABD2C3",
"iX c #C6DBEE",
"pX c #FCF8EE",
"aX c #FFFFFF",
"sX c #F5FAFA",
"dX c #EAF0F0",
"fX c #E3E8E3",
/* pixels */
"                                                                                                                                ",
"                                                                                                                                ",
"                                                                                                                                ",
"                                                                                                                                ",
"                                                                                                                                ",
"                                                                                                                                ",
"                                      aXaXaXaXaXaXaXaXaXaXaXaXdX/.I.L.I.I.L.P.                                                  ",
"                                      aXaXaXaXaXaXaXaXaXaXaXaXdX/.L.P.P.P.P.I.U.                                                ",
"                                  L.OXeXrXrXrXrXrXrXrXrXrXrXrXtX=X$XoXL.L.L.L.P.I.I.                                            ",
"                                  L.E.:X9X9X8X8X8X8X8X8X8X8X8X8XwXwX@XH.J.J.P.L.L.L.                                            ",
"                                  P.E.:X9X9X9X9X9X9X9X9X8X9X9X9X9X9X#XoXoXI.P.L.P.P.                                            ",
"                                  P.E.:X9X9X9X9X8X9X9X8X9X9X9X9X8X8X8X8X5X/.J.L.P.I.                                            ",
"                                  P.E.:X9X9X9X9X9X9X9X9X9X9X9X9X9X9X9X9X5X/.L.L.P.L.                                            ",
"                                  L.E.:X9X9X9X9X9X9X8X9X9X9X9X9X9X9X9X9X7X/.J.L.L.P.                                            ",
"                                  L.E.:X8X6X6X6X6X6X6X6X6X6X6X6X6X6X8X9X7X/.L.L.P.P.                                            ",
"                                  H.U.oXOX!.9 9 9 9 9 9 9 9 9 9 9 9  X9X7X/.L.L.L.P.                                            ",
"                                  P.L.P.J.M.. . . . . . . . . . . . ].wX5X/.H.P.P.L.                                            ",
"                                  L.L.L.P.N.. . . . . . . . . * ].|.3X9X5X/.L.P.P.L.                                            ",
"                                  P.P.T.K.M.. . . . . . . . . * ;XwXwX9X5X/.P.P.P.L.                                            ",
"                                  H.E.=X=X}.Q E % . = ' ` ` ` ` 5X9X9X9X7X/.P.P.P.L.                                            ",
"                                  L.(.dXaXiXY.F.5 . 0 dXaXsXaXsXqX9X9X9X7X/.J.P.J.L.                                            ",
"                                  L./.dXsXiXY.F.5 . 0 dXsXsXsXsXqX9X9X9X7X/.J.I.R.R.                                            ",
"                                  P.(.5XqX>XU.F.5 . 0 3XqXqXqXqX9X9X9X9X5X/.J.S.b } ..o.o.X.o.o.X.o.                            ",
"                                  P.E.5XwX*XI.F.* . 8 5X0XwX9X8X9X8X9X9X5X/.J.R.] ] | | | ..O.......                            ",
"                      s s g #.$.` J.E.:X9X*XI.T.5 . 8 3X9X9X9X8X9X9X8X9X5XQ.J.A.x e - + - d f f d f @.%.#.#.%.%.%.              ",
"                      d s d #.#.) J.E.:XwX&XI.T.5 . 8 3X9X9X9X6X9X8X9X8X7X/.K.C.x e + . X t s s z s @.#.%.%.#.#.%.              ",
"  %.%.2.i.j.i.p.8.%.%.J Z C j l ( J.E.:X9XqXeX2XC.! / 0X9X9X9X9X9X9X$X@X#XY.J.G.- - X . + h L ;.>.>.Z j Z %.%.#.%.%.%.%.        ",
"  #.#.,.i.i.p.i.7.%.#.%.#.@.s z ~ P.W.:X9XyXaXsX#XK.XX0X9X9X9X9X9X9X#XH.P.L.P.B.O . . . X K %.6.p.9.l y Z %.#.%.%.%.%.@.        ",
"  %.#.*.2.2.2.2.-.j l 3.5.3.J Z c E W .X@X=XtXtX=X$X&X8X8X8X9X5X%X@X(.L.T.! E 8 i p C K %.4.5.4.2.2.Z Z j j j K #.#.#.#.&.%.    ",
"  %.%.%.#.%.#.#.J s d 7.p.9.$.$.p . % T.K.oX8X9X8X8X9X9X9X9X9X:XY.J.L.P.F.5 . # #.$.7.a.a.i.p.,.%.#.%.%.l t t K %.#.%.%.%.%.%.  ",
"  %.%.$.=.-.,.-.$.g l 3.5.4.%.$.p . % ^ M.R.*X*X*X*X*X*X>X*X*X&XY.P.B.M.M.& . # Z K 3.5.6.7.7.-.#.%.%.%.C g g Z Z #.%.%.@.K @.  ",
"  %.%.,.i.i.i.i.7.%.%.g d g %.%.p . . . . 7 L.U.U.U.U.U.U.U.U.U.U.P.E . . . . + s s s z g @.%.#.#.#.#.%.#.#.%.g s j %.%.g s s   ",
"  K Z =.5.7.7.7.5.K Z g s g Z @.p . . . . 5 N.N.N.N.V.V.N.N.N.N.V.V.7 . . . . @ h h k k Z -.=.*.%.%.#.#.%.#.#.g y j #.#.j g h   ",
"  d s s z d #.$.K s s s s s s d : . . . . . . . . O . . . O . . . O . . . . . # K %.6.i.i.i.i.,.#.%.%.#.#.#.#.d y C #.#.#.#.%.  ",
"  d s s d g #.%.K d d s t s s s q . . . . . . O o O O . O o o O . O . o O O . $ K &.6.i.9.i.i.2.#.%.#.#.#.#.%.g z j %.#.#.%.%.  ",
"  K Z ;.5.5.7.7.5.K Z s s s s s q . & ^ V.A.|.|.|.|.|.|.|. X|.|.|.|.|.|.|.|.|.[.v g k k +.=.-.$.#.#.#.%.C g g Z K C h g g g g   ",
"  %.#.,.i.i.i.i.6.&.#.g s s t s : . % D.H.oX0X8X0X9X9X0X9X0X9X0X0X0X0X0X9X9XwX2Xh t t t d @.%.%.#.#.%.@.j s s K %.C s y s s t   ",
"  $ $ : k k k k Z g h s s u # # @ . . 5 6 Q oXoXoXoXoXoXoXoXoXoXOXoXOXoXoXoXoXR.= # h K #.6.7.-.#.K 1 ; q s s +.%.j t s         ",
"  . . # t s s z s s t s d u . . . . . . . 6 H.H.L.H.H.H.H.H.H.K.J.H.K.J.H.H.J.B.O . A &.=.i.a.2.%.@.@ . : s s @.&.j t s         ",
"  . . # d t : : : : : : : > < ; ; < < < < 2 ^ ^ F.L.Y.@X@X@X@X@XY.L.^ ! ^ ^ ^ W 2 ; N K Y K K N i i 1 ; > : : i i f  . .        ",
"            . . . . . . . o B S F N N N N i . . B.J.XX6XqX9XwX7XW.J.7 . . . . o D S M N m . . . . . m S < . . . . n X.X.        ",
"            < 1 < < 1 D G U 1.1.y.y.1.1.y.T 2 2 W ^ N.$X=X$X$X%X^ ^ 6 . . D G U 1.1.1.1.<.2 < < 1 2 T y.B < < < ; f X.X.        ",
"            N F G D F k.n.b.b.b.b.b.b.b.n.h.F M @ . * T.J.J.J.D.% . . . o h.n.n.b.n.b.b.l.F S S V P l.n.y.S S F V :.o.X.        ",
"            I I U T T x.m.m.v.v.v.b.b.x.x.h.F M o . * B.D.G.D.V.% . o $ 2 k.m.m.m.m.v.v.v.T U U I R k.x.<.S S B B :.O.O.        ",
"        N U k.l.1XfXdXpXpXdX4X4X<Xn.l.R I U V M $ . . % % % % % . . I u.u.fXpXpXpXpXeX4X4Xc.x.x.l.k.T I F F N $ o w [ [         ",
"        N U l.n.1XaXaXaXaXsX9X8XuXn.x.U M V V M o . . . . . . . . . =.f.z.pXaXsXaXaXyX0X4Xv.b.m.n.b.R M S F N $ . r [ ]         ",
"        f.g.[.[.,XtXrXtXrXtX9X9X3X[.[.g.f.d.V V 4 4 2 . . . . . 2 4 _ {.{.4XrXrXrXrXqX9X6X[.[.d.y.y.f.f.P ; ; : , e ] ]         ",
"        n.v.!.K.XX8X9X0X9X0X9X8X&XK.!.v.n.k.V V V P B . . . . o M V Z.K.G.;XqX9X8X9X9X9X:XY.K.( N F l.n.G . . e e n ] ]         ",
"        y.d.R.J.oX8X9X9X6X5X%X@X+XJ.R.d.d.R 1 < < 1 $ . . . . X M V Z.J.Y.>X9X8X8X8X$X@X@XU.J.( V V F G 1 . . w e ] | |         ",
"        V H G.K.oX8X9X9X9X:XY.K.J.J.G.H V 4 . . . . . . . . . o B F Z.J.Y.:X9X0X9X8XoXK.J.J.J.( N B o . . . . w e { X.o.        ",
"        F H Z.A.!.>X*X>X>X&XY.H.G.A.Z.H V m $ $ . . . @ + + + # 4 m / V.V.=X>X*X>X&XXXU.L.A.S.' T R i 4 = . . : e { o.o.        ",
"            F F ( I.J.J.K.P.J.K.Z.D F D V V M B @ . X e e e e w o . . . O D.J.P.P.P.J.K.G.H S g.b.v.b.b.G . .                   ",
"            P P G ~.~.~.~.~.~.~._ P P P P P P V ; # - : w n b b # @ - ; < ^.~.~.~.~.~.~.^.U P f.z.z.z.z.Y @ #                   ",
"        s d K #.,.s.s.s.s.s.s.i.6.#.%.#.#.%.%.K g t u X O e._.).v s L K &.7.s.s.s.j.j.j.9.*.#.%.&.&.%.&.j t t + .               ",
"        s d K %.,.s.s.i.s.s.i.i.6.#.#.#.#.%.#.#.s t a . . w._.).v y Z &.$.8.i.s.i.s.i.i.8.*.#.#.#.#.#.#.j t t # . .             ",
"        s d K %.#.=.,.=.,.,.,.,.=.#.#.#.#.@.g h ; @ @ . X q._.)., # p &.#.*.,.=.,.,.,.,.=.%.%.%.#.#.j h > @ # . . .             ",
"        s d @.@.#.#.#.#.#.#.#.#.#.#.#.#.#.Z s t + . . O O q._.).= . p @.#.#.#.#.#.#.@.#.K #.%.#.%.@.s s ; . . . .               ",
"            g g j #.#.#.#.K h h g g g g g g t t X . = e.w.)._.`.w.w.c $ ; L %.#.%.%.j g g h g h g g s s - . .                   ",
"            t t d #.#.#.%.Z s s t t z t z y s t @ . , _._._._._._._.c . . A #.#.%.@.g t s t z t s s s s ; . .                   ",
"            j j Z 2.2.2.2.,.C j j j j j j g s t + . + ) ) )._.`.r.r.c 3 a =.2.2.2.2.Z j j j j d s s z d q ; ; +                 ",
"        s s #.#.,.i.p.p.a.9.*.%.%.%.%.%.%.K s t o . . . X q._.`.v t J %.&.8.a.p.p.p.,.#.%.%.%.g s s s d s s s @ . .             ",
"      d s s C C Z >.>.>.3.;.Z C C C C C C j s t @ . . . X ~ r.t.g y j k J -.>.>.>.>.K C C C C g s t : : : : : X . .             ",
"  s s s s s s s s s t s s t s s s s s t s s s t + . . . . a s s s s s t s s s s t s t s s s t s s t + . . . . . . .             ",
"  s s s t s s s s s s s s s s s s s s s s s s t o . . . . q s t s s s s s t s s s s s s s z s s s t X . . . . . . .             "
};
