/* XPM */
static char *_0e4e466fc3d4768a8f6375c3ab89571OxTgNFaoUS9ynmvX[] = {
/* columns rows colors chars-per-pixel */
"64 64 169 2 ",
"   c None",
".  c #000100",
"X  c #0B0A0A",
"o  c #110E03",
"O  c #141205",
"+  c #181507",
"@  c #2D1E1D",
"#  c #3D1616",
"$  c #3F1916",
"%  c #3C1619",
"&  c #321E1D",
"*  c #3E1A1A",
"=  c #3D201F",
"-  c #3E3610",
";  c #352322",
":  c #3D2423",
">  c #3C2827",
",  c #3F2629",
"<  c #3D2A2A",
"1  c #3B302F",
"2  c #401816",
"3  c #411B1A",
"4  c #43201D",
"5  c #4B251B",
"6  c #4F291C",
"7  c #512B1C",
"8  c #433A12",
"9  c #57321E",
"0  c #5B361F",
"q  c #5E391F",
"w  c #431F21",
"e  c #4B1C26",
"r  c #541F35",
"t  c #422323",
"y  c #452827",
"u  c #46262C",
"i  c #442B2B",
"p  c #45302F",
"a  c #5E3820",
"s  c #5C3620",
"d  c #472A31",
"f  c #492D36",
"g  c #492F38",
"h  c #433130",
"j  c #4A323D",
"k  c #493939",
"l  c #45333B",
"z  c #623D20",
"x  c #4D4316",
"c  c #504617",
"v  c #594D18",
"b  c #674222",
"n  c #6C4722",
"m  c #6F4A24",
"M  c #724D24",
"N  c #765225",
"B  c #795527",
"V  c #7C5926",
"C  c #7B6A23",
"Z  c #756520",
"A  c #6E1F55",
"S  c #4C3542",
"D  c #4E3A4A",
"F  c #4D3A47",
"G  c #503D4F",
"H  c #523D52",
"J  c #612E55",
"K  c #6F3870",
"L  c #763675",
"P  c #514154",
"I  c #55495F",
"U  c #4C506C",
"Y  c #58516E",
"T  c #595371",
"R  c #5D5B7C",
"E  c #574E66",
"W  c #664270",
"Q  c #825D28",
"!  c #805B27",
"~  c #86622A",
"^  c #88652A",
"/  c #8E6A2C",
"(  c #926F2C",
")  c #8F7C28",
"_  c #857326",
"`  c #99772E",
"'  c #9D7A2F",
"]  c #917D29",
"[  c #832470",
"{  c #95812A",
"}  c #A68332",
"|  c #A98632",
" . c #AE8C33",
".. c #B08D34",
"X. c #AC9531",
"o. c #B49136",
"O. c #BB9937",
"+. c #BC9A38",
"@. c #B29A34",
"#. c #BAA135",
"$. c #C09E39",
"%. c #C3A139",
"&. c #C9A63C",
"*. c #C5AA39",
"=. c #CDAC3C",
"-. c #D1AF3D",
";. c #CEB33C",
":. c #D5B33F",
">. c #D9BC3F",
",. c #DBBA40",
"<. c #E0BF42",
"1. c #E4C343",
"2. c #E8C744",
"3. c #EECC46",
"4. c #F1CF46",
"5. c #F1D147",
"6. c #F6D448",
"7. c #F8D649",
"8. c #FBD94A",
"9. c #5F6489",
"0. c #606389",
"q. c #606287",
"w. c #656D99",
"e. c #66719D",
"r. c #6875A5",
"t. c #6879AB",
"y. c #6A7EB1",
"u. c #727CB7",
"i. c #C231C4",
"p. c #C735D0",
"a. c #DF33E8",
"s. c #EA36F7",
"d. c #E638F7",
"f. c #E73AFA",
"g. c #E839F9",
"h. c #B746D0",
"j. c #977FEB",
"k. c #9F7FF4",
"l. c #AF63E9",
"z. c #B260E9",
"x. c #BB66F7",
"c. c #B769F7",
"v. c #BB66F8",
"b. c #B769F8",
"n. c #B567F4",
"m. c #CF4EF3",
"M. c #D050F7",
"N. c #D151F9",
"B. c #6E82B9",
"V. c #6E82B4",
"C. c #7086BF",
"Z. c #738BC5",
"A. c #738DCA",
"S. c #7B8CD2",
"D. c #7592D0",
"F. c #7798DA",
"G. c #7898DB",
"H. c #7A9CE2",
"J. c #7DA3EC",
"K. c #7EA5F0",
"L. c #7FADF9",
"P. c #7EABF5",
"I. c #8299EA",
"U. c #A181F7",
"Y. c #A181F8",
"T. c #80A9F5",
"R. c #87A3FA",
"E. c #81ABF9",
"W. c #88A5FD",
/* pixels */
"                                                                                                                                ",
"                                  < : * : : : * = : : 4 = = : * * = * = : : = = w w = = = = :                                   ",
"                                  i 3 3 3 3 2 3 3 3 3 # 3 2 3 3 3 3 3 3 3 3 3 3 3 3 3 3 3 3 *                                   ",
"                            > : : e 3 3 3 3 3 3 3 3 3 3 3 3 3 3 3 3 3 3 3 3 3 3 2 3 3 3 3 3 3 y y :                             ",
"                            : 3 3 3 3 3 3 3 3 3 3 3 3 3 3 3 3 3 3 3 3 3 3 3 3 3 3 3 3 3 3 3 3 3 * 3 1                           ",
"                      ; : : t 3 3 3 3 3 3 3 3 3 3 3 3 3 3 3 3 3 3 3 3 3 3 3 3 3 3 3 3 3 3 3 3 3 3 3 : : :                       ",
"                      : 2 3 3 3 3 3 3 3 3 3 3 3 3 3 3 3 3 3 3 3 3 3 3 3 3 3 3 3 3 2 3 3 3 3 3 3 3 3 3 3 3 i                     ",
"                & & ; * 3 3 3 3 3 3 3 3 3 3 3 3 3 3 3 3 3 3 3 3 3 3 3 3 3 3 3 3 3 3 3 3 3 e 3 3 3 3 3 3 3 : ; ;                 ",
"                * * 2 3 3 3 3 3 3 3 3 3 3 3 3 3 3 3 3 3 3 3 3 3 3 3 3 3 3 3 3 3 3 3 3 3 3 3 3 3 3 3 3 3 3 3 3 3 :               ",
"                t 3 3 3 3 * 3 3 3 3 3 3 3 3 3 3 3 3 3 3 3 3 3 3 3 3 3 3 3 3 3 3 3 3 3 3 3 3 3 3 3 3 3 3 3 3 3 3 t <             ",
"                4 3 3 3 * 3 3 3 2 3 2 2 3 3 3 3 3 3 3 3 3 3 3 3 3 3 3 3 3 3 3 3 3 3 3 3 3 3 3 3 3 3 3 3 3 3 3 3 3 = 3 :         ",
"              h = 3 3 3 2 3 3 3 2 5 z z 9 3 3 3 3 3 3 3 3 3 3 3 3 3 9 z z 3 3 3 3 w 3 3 2 3 3 3 3 3 3 3 3 3 3 3 * 3 3 t         ",
"        p 3 4 3 3 3 3 3 3 3 3 2 2 ! <.<.$.5 % % 3 3 3 3 3 3 3 3 3 z ,.<.,.n 2 3 2 3 3 3 3 3 3 3 3 3 3 3 3 3 3 3 3 3 2 t         ",
"        p 3 3 3 3 3 3 3 3 3 5 6 7 ( 6.8.-.s y 3 3 3 3 3 3 3 3 7 6 m 2.8.4.M 3 3 3 3 3 3 6 7 6 3 3 3 3 3 3 3 3 3 2 3 3 =         ",
"        p 2 3 3 3 3 3 3 3 3 ` :.:.<.7.7.4.:.,.,.z 3 3 3 3 * M ,.,.,.5.7.4.M 2 3 3 3 3 m ,.,.o.7 3 3 3 3 3 3 3 3 3 3 2 t         ",
"        p 3 3 3 3 3 3 3 3 3 ..8.7.7.7.7.7.7.8.4.M 3 3 5 3 * ~ 5.6.6.6.7.3.N 3 3 3 3 3 ! 3.7.,.9 3 3 3 3 3 3 3 3 3 3 3 :         ",
"        i 3 3 * 3 3 3 3 2 3  .8.6.6.7.7.7.7.7.6.&.O.O.O.O.+.-.7.7.7.7.7.5.=.O.O.o.$.o.,.6.7.4.$.+.o.z 3 3 3 3 3 3 3 3 3 t 4 t   ",
"        p 3 3 3 2 3 3 3 3 3  .8.8.6.7.7.7.7.7.7.8.8.8.8.8.8.7.7.7.7.7.7.7.8.8.8.8.7.7.7.7.7.7.8.8.4.M $ 3 3 3 * 3 3 3 3 3 3 3 k ",
"    y y t 3 3 * 3 3 3 3 3 5 ..8.6.8.6.7.7.7.7.7.7.7.7.7.7.7.7.7.7.7.7.7.7.7.8.7.7.7.7.7.7.7.7.6.7.3.M $ 3 M | | ~ 3 3 3 3 3 t k ",
"  i * 3 3 3 2 3 3 3 3 2 3 3 ..8.6.7.7.7.8.8.8.7.8.7.7.7.7.7.7.7.7.7.7.7.7.8.8.8.8.8.8.7.7.6.7.7.7.2.m % $ ' 8.8.%.5 3 3 3 3 * k ",
"  i 3 3 3 3 3 3 3 3 3 3 3 3  .8.7.;.] ) ] ] ] ] ,.8.7.7.7.7.7.7.7.7.7.7.4.X.) ) ` ) ) @.5.6.7.7.7.4.| / / $.8.8.+.5 3 3 3 3 3 k ",
"  i # 3 3 3 2 3 3 3 3 * $ 3  .8.8.{ . . . . . o #.8.7.7.7.7.7.7.7.7.7.7.3.8 . . . . . x 4.7.7.7.7.7.6.7.7.8.8.8.%.5 3 3 3 3 4 k ",
"  i # 3 * 3 3 3 3 * 4 n B B %.8.8.@.c x x x c v ;.7.7.7.7.7.7.7.7.7.7.7.4.C x x x x x _ 5.7.7.7.7.7.7.6.7.,.$.$.` 4 3 3 3 * = k ",
"  i 3 3 2 3 2 * 3 2 7 &.6.5.6.7.7.6.4.5.5.5.4.4.7.7.7.7.7.8.8.8.8.8.7.7.7.5.4.4.5.4.5.5.7.7.7.7.7.7.7.8.8.' 3 3 4 3 3 3 3 3 3 k ",
"  i 2 3 3 3 3 3 3 $ 7 ,.8.7.7.7.7.7.7.7.7.7.7.7.7.7.6.,.*.*.*.*.*.;.5.8.6.7.7.7.6.7.7.7.7.7.7.7.6.6.,.-.-.^ 3 3 3 3 3 3 3 2 4 k ",
"  i 3 3 3 3 3 3 $ $ 6 &.8.7.7.7.7.6.6.7.7.7.7.7.7.7.5.Z O O O O o - <.8.8.7.7.7.8.6.7.7.7.8.7.7.7.3.V 5 7 4 3 3 3 3 3 3 3 3 = k ",
"  i 2 3 3 3 2 3 3 $ 6 +.2.1.3.7.7.6.7.7.7.7.7.7.7.7.7.C + + + + O - <.6.7.7.7.7.7.7.7.5.1.<.1.<.1.,.n $ 2 3 3 3 3 3 3 3 3 * 4 k ",
"  i * 3 3 3 3 3 3 * * s s z O.8.7.7.7.7.7.7.7.7.7.7.7.<.;.;.;.;.,.,.5.6.7.7.7.7.7.7.8.%.z z z z z s 5 3 3 3 3 3 3 3 3 3 3 * 4 k ",
"  i * 3 3 3 3 3 3 3 3 $ $ 3 | 5.4.3.3.3.4.7.7.7.7.7.7.7.8.8.8.8.7.7.7.7.7.7.7.7.5.4.4.o.3 % % 3 % 2 3 3 3 3 3 3 3 3 3 3 3 3 3 k ",
"  i $ 3 3 3 2 3 2 3 3 3 3 3 s M M M M m / 3.7.7.7.7.7.7.7.7.7.7.7.7.7.7.7.7.7.7. .M M z 3 3 3 3 3 3 3 3 3 3 3 3 3 3 3 3 3 3 4 k ",
"  i $ 3 3 2 3 3 3 * 3 3 3 3 3 $ * # $ % b 2.6.6.5.5.7.7.7.5.7.7.7.7.7.7.7.7.5.7.( % 3 3 3 3 3 3 3 3 3 3 3 3 4 3 3 3 3 3 3 * = k ",
"    i < i 3 3 t d i h : * 3 3 3 3 3 3 3 7 Q ~ ~ ~ ~ ~ ~ ~ ~ ..5.7.7.7.7.5.} C ~ z 3 3 3 3 3 3 3 3 3 3 3 * i p i h 3 $ t p i i   ",
"        i 3 2 i       = 3 3 3 3 3 * 3 3 3 # * * % 3 % $ $ $ Q 5.7.7.7.7.3.M % % 3 3 3 * 3 3 3 3 3 3 * 3 * p       4 * =         ",
"          i i h       i i i i i i i i i i i i i i i i t 3 2 ~ 4.7.7.7.7.3.M % w : > i i > ; @ @ ; ; t * * i       i i i         ",
"                                                      y 3 $ ~ 6.8.8.8.8.4.M % w ;         . . . . X y $ 3 i                     ",
"                                                  > , t 3 3 n ..o.o.o.o.| z * 3 : < > > > ; @       p y i h                     ",
"                                                $ % % * 3 3 3 3 3 3 3 3 3 3 3 3 3 $ $ * 3 * *                                   ",
"                                                S D D d 3 3 3 3 3 3 3 3 3 3 3 3 f G H j 3 3 : <                                 ",
"                            > * * 3 3 3 4 * * : r.K.J.T # 2 3 3 3 3 3 3 3 3 3 3 q.J.K.r.3 3 3 3 3 * 3 * * <                     ",
"                            l f g i 3 * 3 f f S A.E.T.9.f f f f f f f f f f f f r.E.E.B.j g f 3 3 3 d g g k                     ",
"                      : * t 0.G.G.0.3 2 S A.G.G.K.L.P.H.G.G.G.F.G.G.G.G.G.G.G.G.J.T.T.K.G.G.B.i 3 t r.G.F.R 4 * >               ",
"                      , t y w.T.T.e.e e H I.W.W.R.R.R.R.R.W.R.R.R.R.R.R.R.R.R.R.R.R.R.R.R.W.S.f 3 t y.J.J.9.t t i               ",
"                * & , w.Z.Z.R S F L i.i.p.m.M.M.M.M.M.M.M.M.M.M.M.M.M.M.M.M.M.M.M.M.M.M.M.M.h.r 2 3 j G F q.D.V.U : % =         ",
"                t 2 u Z.E.E.Y 2 2 [ d.g.d.d.d.s.d.d.d.d.d.d.d.d.d.d.d.s.d.d.d.f.d.d.d.f.d.d.p.r 3 3 3 # $ q.E.E.t.t * t         ",
"                3 * i Z.E.J.T 2 $ W U.U.Y.Y.Y.Y.U.U.U.U.Y.Y.Y.k.U.Y.U.U.U.U.Y.U.U.U.U.U.Y.Y.U.V.y.r.S 2 3 q.T.E.u.t # :         ",
"                t 2 u Z.E.T.T 2 $ T K.E.L.L.L.L.L.L.L.L.L.L.E.L.E.E.E.L.L.L.E.E.P.L.E.E.E.E.E.E.E.T.P 2 2 q.E.E.V.t 2 4         ",
"                t 2 t E q.R S $ $ K n.c.c.c.b.c.b.b.b.b.b.b.b.b.c.c.b.c.c.b.b.b.c.c.c.c.c.c.c.c.v.z.J 2 3 G R q.I 3 3 t         ",
"                3 3 2 $ # $ $ 3 $ [ s.s.s.s.s.d.s.s.s.s.s.s.s.s.s.s.s.s.d.s.s.s.d.d.s.s.d.s.s.s.s.a.J $ 3 # # # * 3 $ t         ",
"                4 * 5 V / / q * 2 K x.v.v.x.v.v.x.x.x.x.v.v.v.v.v.v.v.v.x.x.v.v.x.v.x.x.x.x.x.x.v.z.J 2 3 b / ( B 3 2 t         ",
"                3 * 7 =.8.7.^ * 2 T T.T.E.E.E.E.E.E.E.T.E.E.E.L.P.E.E.E.L.E.E.E.E.E.T.E.E.T.E.E.R.J.P 2 2 ' 8.8.%.5 * =         ",
"                t * 5 } &.$.M 3 2 T T.E.E.E.E.T.E.E.E.E.E.E.E.E.T.E.E.L.E.E.E.E.E.E.E.E.E.E.E.E.T.J.P 2 2 ~ %.&.' 5 $ :         ",
"                = 3 2 5 4 5 2 3 2 T T.E.E.E.E.E.E.E.E.E.E.E.E.E.E.E.E.E.E.E.E.E.E.E.E.E.E.E.E.E.E.J.P 2 3 3 5 4 4 3 3 4         ",
"                : : 4 = 3 4 3 * 2 T T.E.E.E.E.E.E.E.T.H.D.D.D.D.D.D.D.D.D.K.L.E.E.E.T.E.E.T.E.E.E.J.P 2 3 3 4 : 3 : 3 :         ",
"                            : 3 2 T T.E.E.E.E.E.T.E.K.q.u u d d d d d u g B.E.E.E.E.E.E.E.E.E.E.E.H.P 2 3 i                     ",
"                            > * 2 T T.E.E.T.E.E.E.E.T.R 2 3 3 3 3 3 2 2 t B.E.T.E.E.E.E.E.E.E.E.E.J.H * * i                     ",
"                            : 3 2 T T.E.E.E.T.E.E.E.T.R 3 3 y       w 3 e C.E.E.E.E.E.E.E.E.E.E.E.K.P * 3 i                     ",
"                            y * 2 Y J.J.K.J.J.T.K.J.T.T 2 3 i       t 3 e V.T.J.T.T.I.J.J.K.J.K.K.H.P 2 * p                     ",
"                            : * 3 d P P P P P P P P H d 3 3 y       3 3 3 S P P P H P P P P P P P H y $ * d                     ",
"                            : 3 * 3 2 2 3 3 2 2 2 2 2 2 2 3 t       t 3 3 2 2 2 2 2 2 2 3 2 2 $ $ $ 3 3 * p                     ",
"                              : : : : : : 3 3 3 3 3 3 3 3 3 i       t 2 3 3 3 3 3 3 2 3 3 3 4 : > : t > >                       ",
"                                          4 2 3 3 3 3 3 3 3 :       4 3 3 3 3 3 3 3 3 3 3 3 =                                   ",
"                                    i y i 3 3 3 3 2 3 3 3 3 :       4 3 3 3 3 3 2 3 3 3 3 3 3 t i y                             ",
"                                  > 3 3 * 2 * * $ * 3 3 * * >       * * * * 3 3 3 * 3 3 3 3 3 3 3 = <                           ",
"                                    : = : : = : = = : * * = ;       : = : * = * ; * = = : : = : : :                             "
};
