/* XPM */
static char *frisk1675595310[] = {
/* columns rows colors chars-per-pixel */
"64 64 226 2 ",
"   c None",
".  c #010101",
"X  c #0C0504",
"o  c #0C0A05",
"O  c #02070C",
"+  c #130A06",
"@  c #170A07",
"#  c #1A140B",
"$  c #050C13",
"%  c #09121A",
"&  c #161112",
"*  c #180F13",
"=  c #260A0B",
"-  c #25130A",
";  c #261B0F",
":  c #351A0F",
">  c #3E110D",
",  c #3D0F12",
"<  c #251A14",
"1  c #3C1D10",
"2  c #361D10",
"3  c #220D13",
"4  c #242111",
"5  c #2C2714",
"6  c #362815",
"7  c #312C16",
"8  c #091521",
"9  c #0B192A",
"0  c #0D1E30",
"q  c #1B2528",
"w  c #10243C",
"e  c #253438",
"r  c #2E2A2C",
"t  c #4D1315",
"y  c #531318",
"u  c #541516",
"i  c #430F13",
"p  c #651D1A",
"a  c #472414",
"s  c #592A17",
"d  c #562A18",
"f  c #5B2C19",
"g  c #532817",
"h  c #47351C",
"j  c #5F311C",
"k  c #53361E",
"l  c #7E221B",
"z  c #63351E",
"x  c #69371E",
"c  c #672E1C",
"v  c #531921",
"b  c #583923",
"n  c #48362A",
"m  c #663A21",
"M  c #6A3D22",
"N  c #643324",
"B  c #733B23",
"V  c #70282D",
"C  c #4C4423",
"Z  c #554C25",
"A  c #584F27",
"S  c #574B28",
"D  c #595027",
"F  c #5C522A",
"G  c #57502A",
"H  c #575133",
"J  c #5A4F30",
"K  c #6D4124",
"L  c #664928",
"P  c #724426",
"I  c #764B2A",
"U  c #794D2B",
"Y  c #764628",
"T  c #615129",
"R  c #65592E",
"E  c #7E542F",
"W  c #72522C",
"Q  c #665B31",
"!  c #675B32",
"~  c #7F5530",
"^  c #6D6237",
"/  c #776939",
"(  c #7E703E",
")  c #48401F",
"_  c #152B46",
"`  c #1B3959",
"'  c #1A344F",
"]  c #1B3E68",
"[  c #1C416A",
"{  c #1F4877",
"}  c #2C5178",
"|  c #4F524E",
" . c #6B4A53",
".. c #6B694D",
"X. c #58666C",
"o. c #676767",
"O. c #6E7577",
"+. c #635E60",
"@. c #84241D",
"#. c #8A2F25",
"$. c #BA3E32",
"%. c #AC362B",
"&. c #C13D32",
"*. c #80562F",
"=. c #815630",
"-. c #845931",
";. c #8D5D33",
":. c #885730",
">. c #965E34",
",. c #8B452C",
"<. c #926136",
"1. c #9D6136",
"2. c #9E693A",
"3. c #986538",
"4. c #8F6036",
"5. c #A56B3C",
"6. c #B1713F",
"7. c #AC723F",
"8. c #C94135",
"9. c #C74135",
"0. c #8A7A44",
"q. c #907F47",
"w. c #867E53",
"e. c #BA7A44",
"r. c #B57843",
"t. c #AE7542",
"y. c #8C596D",
"u. c #955B69",
"i. c #8E5359",
"p. c #C07F46",
"a. c #928249",
"s. c #918047",
"d. c #A79457",
"f. c #B09152",
"g. c #BFA357",
"h. c #BDA763",
"j. c #888562",
"k. c #C7854C",
"l. c #CA854A",
"z. c #CE884B",
"x. c #C18047",
"c. c #D18A4C",
"v. c #C7AB65",
"b. c #CBB369",
"n. c #D2B96D",
"m. c #D1B76C",
"M. c #CDBA7A",
"N. c #CDB671",
"B. c #DBC378",
"V. c #E2C676",
"C. c #E6CA79",
"Z. c #245287",
"A. c #25548A",
"S. c #285B96",
"D. c #2F578F",
"F. c #3C6386",
"G. c #2A609F",
"H. c #396594",
"J. c #2C66A8",
"K. c #2C66A8",
"L. c #3569A6",
"P. c #2E6BB2",
"I. c #316EB3",
"U. c #3471B6",
"Y. c #3A77B8",
"T. c #3976B8",
"R. c #3E74AD",
"E. c #557299",
"W. c #557196",
"Q. c #486C92",
"!. c #427EBB",
"~. c #4B7EBA",
"^. c #4778A7",
"/. c #AA6B83",
"(. c #B5728C",
"). c #BD7894",
"_. c #B16F86",
"`. c #C17A97",
"'. c #7A9196",
"]. c #6D8B96",
"[. c #4986BF",
"{. c #4481BE",
"}. c #538BB9",
"|. c #7296AB",
" X c #76A2B1",
".X c #4986C1",
"XX c #548DC4",
"oX c #5A96C8",
"OX c #639ECA",
"+X c #6EAAD2",
"@X c #7BB6D8",
"#X c #71A8D0",
"$X c #89A5AE",
"%X c #B7CFBB",
"&X c #D9C784",
"*X c #E4CC86",
"=X c #EAD496",
"-X c #81BCDC",
";X c #8CB6CD",
":X c #A2BBD9",
">X c #8BC2D7",
",X c #94CADB",
"<X c #A4D5DD",
"1X c #ADD1CA",
"2X c #8EC9E2",
"3X c #89C5E1",
"4X c #93CDE3",
"5X c #98CEE5",
"6X c #95D0E4",
"7X c #9BD6E9",
"8X c #9ED9EB",
"9X c #9AD3E7",
"0X c #A5DAEC",
"qX c #A9DDED",
"wX c #B4D5E3",
"eX c #B6E1EF",
"rX c #BEE4F1",
"tX c #CADBEC",
"yX c #C4E7F2",
"uX c #C5E8F3",
"iX c #CFE7F2",
"pX c #FAF7EF",
"aX c #FFFFFF",
"sX c #F6F9F9",
"dX c #EBEEEE",
"fX c #ECE6D3",
/* pixels */
"                                                                                                                                ",
"                                                                                                                                ",
"                                                                                                                                ",
"                                                                                                                                ",
"                                                                                                                                ",
"                                                                                                                                ",
"                                                  I.P.I.I.I.I.~.dXaXaXaXaXaXaXaXaXaXaXaXaX                                      ",
"                                                I.I.P.P.I.I.J.~.dXaXaXaXaXaXaXaXaXaXaXaXaX                                      ",
"                                            I.I.P.P.P.P.P.{.#X@XeXuXuXuXyXyXyXyXyXyXyXyXeX{.P.                                  ",
"                                            P.P.P.P.P.P.J.XX7X8X7X7X7X7X7X7X7X7X7X7X9X7X2XY.P.                                  ",
"                                            I.I.I.P.U.[..XOX7X7X7X7X7X7X7X7X7X7X7X7X7X7X2XY.I.                                  ",
"                                            P.P.I.P.!.2X7X7X7X7X7X7X7X7X7X7X7X7X7X7X7X7X2XY.P.                                  ",
"                                            P.I.P.P.!.6X7X7X7X7X7X7X7X7X7X7X7X7X7X7X7X8X,XT.I.                                  ",
"                                            P.P.P.P.!.6X7X7X7X7X7X7X7X7X7X7X7X7X7X7X7X8X2XT.I.                                  ",
"                                            P.I.I.P.{.6X7X7X6X6X4X5X5X6X,X9X,X9X6X6X9X7X3XT.P.                                  ",
"                                            P.I.P.P.Y.6X8X Xe e e e e e e e e e e e Q..X[.I.P.                                  ",
"                                            P.I.I.P.!.6X8X].. . . . . . . . . . . . Z.I.P.I.I.                                  ",
"                                            P.P.P.P.!.4X8X>X X].% . . . . . . . . X Z.U.P.P.P.                                  ",
"                                            I.P.P.P.!.4X8X8X8X>X& . . . . . . . . . Z.L.P.P.I.                                  ",
"                                            I.P.I.P.!.4X7X7X8X4XO.o.o.o.+.& . O _ ' ~.;X#XU.I.                                  ",
"                                            P.P.I.P.!.5X7X7X7X0XsXsXaXaXdXr . 8 K.I.tXaXsX!.P.                                  ",
"                                            H.L.P.P.!.5X7X7X7X0XsXsXsXsXdXr . 8 K.I.tXaXiX!.P.                                  ",
"                            9.9.8.9.9.8.8.$.V V H.P.!.6X7X7X7X7X0X0X0X0X,Xq . % K.U.-XqX5XT.P.                                  ",
"                            $.$.$.$.$.$.%.%.@.V H.P.!.6X7X7X7X7X7X7X7X7X,Xq . 8 K.I.-X8X2XT.P.                                  ",
"              *.~ =.E E *.E c c c c f = @ = u v H.P.!.5X7X7X7X7X7X7X7X8X,Xq . 8 K.P.-X0X2XT.P.+.E E j f f                       ",
"              E E E E =.*.U f f f f g X . X y y D.I.{.5X8X7X7X7X7X7X7X8X,Xq . % K.P.@X8X2XT.P. .*.E z j f                       ",
"        =.=.=.E E E *.I K P 1.1.;.K m o . X @ 3 S.P.U.oXoX+X7X7X8X7X7X7X,XD.] } :XwX9X8X2XT.P.| x M K K Y ~ *.e.z.l.l.l.3.~ =.  ",
"        E ~ *.~ *.~ ~ P f x x.c.r.E I o . . . O S.I.P.P.P.XX8X8X7X7X7X7X6X!.P.XXsXaXeX7X2XT.P.| s j U ~ E ~ *.e.z.l.z.l.3.~ ~   ",
"    =.=.E ~ *.E E M M K K I 3.2.5.t.5.E E L k h _ _ ` J.P.Y.oXoX4X7X7X8X7X@X+X@XrXuX+XoX}.` _ S P Y 5.7.5.M M >.2.3.2.2.:.~ ~   ",
"  =.*.*.*.E E E I f f M =.~ E E 3.l.z.z.c.e.*.E @ . % K.U.P.P.T.2X8X8X8X8X8X8X7X8X7X.XP.G.$ . k *.:.x.z.e.f f I E E E E ~ ~ ~   ",
"  I I U E E E I P z z K E ~ ~ E 4.e.e.6.6.5.U P & . $ Z.A.S.P.T.@X-X-X-X-X@X-X-X-X@XH.Z.{ O . k *.*.5.6.5.z z -.<.<.<.<.-.~ =.  ",
"  f f m ~ *.K f z E E E ~ ~ ~ ~ E ~ E j f f f s + . . . . _ P.P.U.U.U.U.U.U.U.U.U.I.0 . O . . k :.E z j z E =.e.l.l.l.l.3.E =.  ",
"  z z K E *.K d z E E ~ E ~ ~ E -.<.>.P P B m j + . . . . 0 A.A.A.A.A.A.A.A.A.Z.Z.Z.% . . . . k U I z f z I I 7.e.r.6.6.:.U U   ",
"  E E E ~ E K f z E *.*.*.*.E E 3.l.x.l.l.r.~ U @ . . . . . . . . . . . . . . . O . . . . . . 1 f f f f f f f U -.U z f f f f   ",
"  ~ E E E E K f z E E ~ ~ E =.E 3.l.l.l.l.r.*.U # O o . . O . O O O . o o . O O . O . . . . . 1 f f f f s f f I =.E z f f f f   ",
"  z z x z z K U Y z z K E *.E *.:.<.>.Y P B z M ]. X X X X X X X X X X X X X X X X XH.Z.{ O . 1 f f f f z I U 7.e.e.6.6.:.I U   ",
"  j f f d f K ~ I f f m E E E E E E E j f f s b ;X8X8X8X7X8X7X7X7X6X7X7X7X7X7X7X7X7X[.P.G.$ . 1 f s f f z E -.e.z.l.l.l.3.E E   ",
"        f j K ~ I j f a # 2 W E <.e.6.E U b + * Q..X.X.X.X.X.X.X.X.X.X.X.X[..X.X[.[.' 9 8 . . X @ @ g s f z z B P B P Y 6 # #   ",
"        d d K *.U j f : . + E *.3.z.k.;.=.L . O S.P.P.P.I.P.P.I.P.P.P.P.J.P.P.P.I.P.8 . . . . . . . g f f f f f f f f f @ . .   ",
"        #.#.x k a 2 2 ; 4 4 h h S U I W W S 4 4 ` [ [ [ [ { P.U.XXoXoXoXoXU.P.K.[ [ q 4 4 4 4 4 4 4 : : : : : : : > f f @ . .   ",
"        9.8.p . . . . # G C . . . . O C Z Z G C o . . . . w I.Y.2X0X8X8X7X.XP.S.O . 7 F Z Z Z Z A C o . . . . . . .             ",
"        9.9.B 4 4 4 ; Z a.( 5 4 4 ; 7 4.s.s.s.s.! H C O . 8 ] { OX+X+X+XOX} [ ` 4 4 ( a.s.s.s.s.s.0.Q F Z 4 4 ; 4 4             ",
"        8.8.,.A G Z Z a.C.m.F F Z Z R m.C.B.V.V.V.C.h.o . . . $ G.P.U.P.K.% . o Z G v.C.V.V.V.B.V.V.V.C.v.F Z Z A D             ",
"        $.&.,.C Z D D 0.n.h.^ Q R ^ / M.B.&X*X*X*X*Xv.# # o . $ A.G.G.K.S.% . # Z G g.n.n.V.B.B.&X&X*X*XM.....! Q Q             ",
"        @.@.t X # Z D F R / v.B.n.n.M.1X<XeXpXpXpXpXfXd.f.! . . $ $ $ $ $ . . o Z G R Q / B.V.%X<X<XdXpXpXdXfX&Xm.v.Q G         ",
"        @.@.> . # S D D Z Q B.B.C.B.B.<X7XqXaXaXaXaXpXg.g./ . . . . . . . . . # Z G Z Z R m.V.1X7X0XsXaXaXaXaX=XV.N.Q Z         ",
"        @.@.u = ; 4 4 F d.d.s.s.j.'.|.6X7X0XyXyXrXuXwX].].| 7 5 . . . . . 5 7 7 Z F a.d.d.'.'.>X8X7XrXuXrXuXrX$X'.'.d.d.        ",
"        @.@.p u > . . F C.m.F Z | P.T.,X7X7X7X9X7X7X>XY.T.} D Z o . . . . C T F Z F v.C.B.I.P.@X8X7X7X7X7X7X6X!.P.^.B.C.        ",
"        %.%.l y i . . 4 J F G A | P.U.oXoX+X7X7X7X7X3XU.P.} R C o . . . . # 4 4 4 5 / s.a.L.I.[.oXoX4X8X7X7X7X[.P.L.s.s.        ",
"        9.8.#.y , . . . . o C Z | J.P.P.P.{.7X7X7X7X3XT.I.Q.F Z . . . . . . . . . . 7 Z H J.U.I.P.U.3X8X7X7X7X.XP.L.H Z         ",
"        9.9.#.y , . . & 7 h / / +.H.H.L.P.{.@X-X-X-X+XS.A.[ h h # @ X @ @ . . . # # C G H H.H.L.P.U.@X@X-X-X@X].H.F.H D         ",
"                  . . J V.B.B.V.h.G H H.P.P.P.U.I.I.G.O O . . X i t y y t X . o C Z G Z Z Z H F.P.P.P.U.P.P.P.| Z G             ",
"                  @ + T b.v.v.b.d.L J W.E.E.W.W.E.E.X.< & # @ @ V V v i > # @ - F F T T T T T X.E.E.E.E.E.E.W.| L F             ",
"              . @ d s M -.=.*.*.=.E -.f.k.k.k.k.k.k.e.*.E P s N /.).y.O . a f z E E E E E ~ E 7.k.k.k.k.k.k.k.4.E E j f         ",
"            . . + d s m *.*.*.*.~ ~ -.p.l.l.l.k.k.l.f.*.~ I s N _.`.y.O X a s j E E ~ E ~ E *.7.k.k.k.l.k.l.k.<.E E j f         ",
"            . . . + @ : z m *.*.~ =.=.4.<.<.<.<.<.<.;.*.=.b + < /.`.y.. . + + - j x W ~ ~ ~ ~ ;.3.4.<.<.<.<.<.*.E I j j         ",
"              . . . . - f z U *.E E E E E E E E E =.E E E b O * /.`.y.X X . . X g f I E E E E E E E E E E E E E E E j f         ",
"                  . . - f f z z m z z z z m E E E =.L - # n y.u.(.`.(.y.y.* . + d f z z z z z z z z E ~ ~ E E M z z             ",
"                  . . - f f f f f f f f s z E E E E M O . r `.`.).).).`.).* . X g f s f f f f f s f I E E E E z d f             ",
"                + - - 2 f f f f j M m M m Y 2.2.2.5.;.6 6 N i.u.(.`./. . .* . + s f m K M M M M M K 3.2.2.2.3.Y m M             ",
"            . . + f f f f f f f m ~ ~ ~ =.>.z.z.z.c.p.-.*.I s m _.`.y.. . . . X d f I ~ =.=.*.*.*.-.x.z.l.l.z.4.~ E z f         ",
"            . . X : : : : 1 f f N P P P P U >.>.>.1.>.Y P M s z i.u. .. . . . + d f K P P K P P P P <.1.5.>.>.,.P K f f f       ",
"            . . . . . . . X s f f f f f f f f f f f f f f f f f f c i . . . . X d f f f f f f f f f f f d f f f f f f f f f f   ",
"            . . . . . . . X s f f f f f f f f f f f f f f f f f f s a . . . . + d f f f f f f f f f f f f f f f f f f f f f f   "
};
