/* XPM */
static char *ebb4e0f5afa6462bfba1f9e69ad03796C8IXdIGcezfTPiQR[] = {
/* columns rows colors chars-per-pixel */
"64 64 127 2 ",
"   c None",
".  c #010101",
"X  c #0D0B0B",
"o  c #110D0D",
"O  c #191717",
"+  c #201616",
"@  c #211817",
"#  c #241A1A",
"$  c #2C1D1D",
"%  c #3F1613",
"&  c #3F1916",
"*  c #331E1D",
"=  c #3E1B1A",
"-  c #33201F",
";  c #3E201F",
":  c #2F2222",
">  c #342423",
",  c #3B2424",
"<  c #362827",
"1  c #3A2827",
"2  c #362828",
"3  c #3C2A29",
"4  c #3E2B32",
"5  c #401917",
"6  c #411B1A",
"7  c #43201E",
"8  c #49231B",
"9  c #5B361F",
"0  c #421F20",
"q  c #432322",
"w  c #452827",
"e  c #452428",
"r  c #442B2B",
"t  c #4A2F2E",
"y  c #42302F",
"u  c #4A302F",
"i  c #5F3920",
"p  c #472B31",
"a  c #492D36",
"s  c #413037",
"d  c #47323C",
"f  c #4A313D",
"g  c #44393D",
"h  c #623D21",
"j  c #664122",
"k  c #6B4522",
"l  c #7B5726",
"z  c #7D5A26",
"x  c #4B3441",
"c  c #4B3947",
"v  c #4E3A4A",
"b  c #503D4F",
"n  c #503E50",
"m  c #7E2268",
"M  c #6F336A",
"N  c #514155",
"B  c #53465B",
"V  c #564C65",
"C  c #574E68",
"Z  c #584F6A",
"A  c #5B5572",
"S  c #5D5A7B",
"D  c #96732E",
"F  c #98752E",
"G  c #BC9A38",
"H  c #C3A239",
"J  c #D6B53F",
"K  c #D8B73F",
"L  c #DCBB41",
"P  c #E0BF42",
"I  c #EDCB46",
"U  c #FCDB49",
"Y  c #5E5E80",
"T  c #735290",
"R  c #79589C",
"E  c #5F6184",
"W  c #5D668D",
"Q  c #666290",
"!  c #636992",
"~  c #616E98",
"^  c #6B6A9D",
"/  c #66719D",
"(  c #7E63AE",
")  c #6874A2",
"_  c #6A77A8",
"`  c #6B7BAD",
"'  c #6D7EB2",
"]  c #99298F",
"[  c #8F338F",
"{  c #89388B",
"}  c #98369C",
"|  c #A42A9C",
" . c #AC2CA6",
".. c #854A9C",
"X. c #E534F0",
"o. c #EA36F7",
"O. c #E639F7",
"+. c #EB37F8",
"@. c #E739F8",
"#. c #EC38FB",
"$. c #B442C8",
"%. c #BD5EF0",
"&. c #B36BF7",
"*. c #B56CF9",
"=. c #D44BF7",
"-. c #D54CF9",
";. c #C15FF7",
":. c #C160F7",
">. c #7087BF",
",. c #728AC5",
"<. c #708DC9",
"1. c #7694D3",
"2. c #7896D5",
"3. c #799ADD",
"4. c #7A9DE4",
"5. c #7CA0E5",
"6. c #7EA3EB",
"7. c #7FA6F2",
"8. c #7FA8F4",
"9. c #7EADF9",
"0. c #9F82F8",
"q. c #A082F7",
"w. c #A083F8",
"e. c #81A7F5",
"r. c #80A9F5",
"t. c #88A0F8",
"y. c #81ABF9",
/* pixels */
"                                    0 6 6 6 6 6 6 6 6 6 6 6 6 6 6 5 5 6 5 6 6 6 5 6 6 6 6 5 r                                   ",
"                                  e 6 6 6 6 6 6 6 6 6 6 6 6 6 6 6 6 6 6 6 6 6 = 6 6 6 6 6 6 e                                   ",
"                            , 6 6 6 6 6 6 6 6 6 6 6 6 6 6 6 6 5 6 6 6 6 6 6 5 6 6 6 6 6 6 6 6 6 = r                             ",
"                            q 6 5 6 6 6 6 6 6 6 6 6 6 6 6 6 6 6 6 6 6 6 6 6 6 6 6 6 6 6 6 6 = 6 5 w                             ",
"                      , = = 6 6 6 6 6 6 6 6 6 6 6 6 6 6 6 6 6 6 6 6 0 6 6 6 6 6 6 6 6 6 6 6 6 6 6 6 6 6 q                       ",
"                      q 6 6 6 6 6 6 6 6 6 6 6 6 6 6 6 5 6 6 6 5 6 6 6 6 6 6 6 6 6 6 6 6 6 6 6 6 6 6 6 6 q                       ",
"                * & = ; 6 6 6 6 6 6 6 6 6 0 6 6 6 6 6 6 6 6 6 6 6 6 6 6 6 6 6 6 6 6 6 6 6 6 6 6 6 6 6 6 6 = = ;                 ",
"                = 6 6 6 6 6 6 6 6 6 6 5 6 6 6 6 6 6 6 6 6 6 6 6 6 6 6 6 6 6 6 6 6 6 6 6 6 6 6 6 6 6 6 6 6 6 = q                 ",
"          , ; ; = 6 6 6 6 6 6 6 6 6 6 6 6 6 6 6 6 6 6 6 6 6 5 6 6 6 6 6 6 6 6 6 6 6 6 6 6 6 5 6 6 6 6 6 6 6 6 q                 ",
"        > 6 = 6 6 6 6 6 6 6 6 6 6 6 6 6 6 6 6 6 6 6 6 6 6 6 6 6 6 = 6 6 6 6 6 6 6 6 6 6 6 5 6 6 6 6 6 6 6 6 6 6                 ",
"        > 7 6 6 6 6 6 6 6 6 6 6 6 6 6 6 6 6 6 6 6 6 6 6 6 6 6 6 6 6 5 6 6 6 6 6 6 6 6 6 6 6 6 6 6 6 6 6 6 6 6 6 w , >           ",
"        < = 6 6 6 6 6 6 6 6 6 6 6 6 6 6 6 6 6 6 6 6 6 6 6 6 6 6 6 = 6 6 6 6 6 6 6 6 6 6 6 6 6 6 6 6 6 6 6 6 6 6 6 6 6 t         ",
"        2 6 6 6 6 6 6 6 6 6 6 6 6 6 6 6 6 6 6 6 6 6 5 6 6 6 6 6 6 6 6 6 6 6 6 6 6 5 6 6 6 6 6 6 6 6 6 6 6 5 6 6 6 6 6 t         ",
"        2 0 6 6 6 5 6 5 6 6 6 6 6 6 6 6 6 6 6 6 6 6 6 6 6 6 6 5 6 6 6 5 6 6 6 6 6 6 6 6 6 6 6 5 6 6 6 6 6 6 6 6 6 6 6 t         ",
"        1 6 5 6 6 6 6 6 6 6 6 6 6 6 6 6 6 6 6 6 6 6 6 6 6 6 6 6 = 6 6 6 6 6 6 6 6 6 6 6 6 6 6 6 6 6 6 6 5 6 6 6 6 6 6 t         ",
"  1 7 7 6 6 6 6 6 6 6 = 6 6 6 6 6 6 6 6 6 6 6 5 6 6 6 6 6 6 6 6 6 6 = 6 6 6 6 6 6 6 6 6 6 6 6 6 6 6 6 6 6 6 6 6 6 6 6 t         ",
"  1 6 6 = 6 6 6 6 6 6 = 6 6 6 6 6 6 6 6 6 6 6 6 5 6 6 6 6 6 6 6 6 5 6 6 6 6 6 6 6 6 6 6 6 6 6 6 6 6 6 6 6 6 6 6 6 6 6 t         ",
"  1 6 6 6 6 6 6 6 6 6 6 6 6 6 6 6 6 6 6 6 6 6 6 6 6 6 6 6 6 5 6 6 6 = 6 6 6 6 6 6 = 6 6 6 5 6 6 6 6 6 6 6 6 6 6 6 6 6 6 , 7 r   ",
"  1 6 6 6 6 6 6 6 6 6 6 = 5 6 6 6 6 6 6 6 6 6 6 6 6 6 6 6 6 6 6 6 & 6 5 6 6 6 6 6 6 6 = = 6 6 6 6 6 6 6 6 6 6 6 6 6 6 6 6 6 w   ",
"  1 6 6 6 6 6 6 6 6 6 6 6 6 6 6 6 5 6 6 6 6 6 = 6 6 6 6 6 6 6 6 6 6 6 6 6 6 6 6 6 6 6 6 6 5 6 6 6 6 6 6 6 6 6 6 6 6 6 6 6 6 w   ",
"  1 6 6 5 6 6 6 6 6 6 6 6 6 6 6 6 6 6 6 5 6 6 6 6 6 6 6 6 6 6 6 6 6 6 6 6 6 6 6 6 6 6 6 6 6 = 6 6 6 6 6 6 6 6 6 6 6 6 6 6 & w   ",
"  1 6 6 6 6 6 6 = 6 6 6 6 6 6 6 6 6 6 6 6 6 6 6 6 6 6 6 6 6 5 6 6 6 6 6 6 6 6 6 6 6 6 6 6 6 6 6 6 6 6 6 6 6 6 6 6 6 6 6 6 6 w   ",
"  1 6 6 6 6 6 6 6 6 6 6 6 6 6 6 6 6 6 6 6 6 6 = 6 6 6 6 6 6 6 6 6 6 = 6 6 6 = 6 6 6 6 6 6 6 6 6 6 6 6 6 6 6 6 6 6 6 6 6 6 6 w   ",
"  1 6 6 6 6 6 6 6 6 6 6 6 6 6 6 6 6 6 6 6 6 6 6 6 6 6 6 6 6 6 6 6 = 6 6 6 6 6 6 6 6 6 6 6 6 6 6 6 6 6 6 6 6 6 6 6 6 6 6 6 6 w   ",
"  1 6 6 6 6 6 6 6 6 6 = 6 6 6 6 6 6 6 6 6 6 6 6 6 6 6 6 6 6 6 6 6 6 6 6 6 = 6 6 6 6 6 6 6 6 6 6 6 6 6 6 6 = 6 6 5 6 6 6 6 6 w   ",
"  1 6 6 = 6 6 6 6 6 6 5 6 6 6 6 6 6 6 6 6 6 6 6 6 6 6 6 6 6 6 6 6 6 6 6 6 6 6 6 6 6 6 6 6 6 6 = 6 6 6 6 6 6 6 6 6 6 6 6 6 6 w   ",
"  1 6 6 6 6 6 6 6 6 6 6 5 6 6 6 6 6 5 6 6 6 6 6 6 6 6 6 6 6 6 6 6 = 5 6 6 6 6 6 6 6 6 5 6 6 6 6 6 6 6 6 6 6 6 6 5 6 6 6 6 6 w   ",
"  1 6 6 6 6 6 6 6 6 5 6 6 6 6 6 6 6 6 6 5 6 6 6 6 6 6 6 6 6 6 5 6 6 6 6 6 6 6 6 6 6 6 6 6 6 6 6 6 6 6 6 6 6 6 6 6 6 = 6 6 6 w   ",
"  1 6 6 6 6 6 6 6 6 6 6 6 6 6 6 6 6 6 6 6 6 6 6 6 5 6 6 6 6 6 6 6 6 6 6 6 6 6 6 6 6 6 6 = 6 6 6 6 6 6 6 6 6 6 = 6 6 6 = 6 6 w   ",
"  1 6 = 6 6 6 6 6 6 6 6 = 6 6 6 6 6 6 6 6 6 6 6 6 6 6 6 5 6 6 6 6 6 6 6 6 6 6 5 6 6 6 6 6 6 & 6 6 6 6 6 6 6 6 6 6 = 6 = 6 6 w   ",
"    r r r 6 = q r r 3 q 6 6 6 6 6 6 6 6 6 6 6 6 6 6 6 6 6 6 6 6 6 6 6 6 6 6 6 6 6 6 6 = 6 6 6 6 6 6 6 6 q y r y q = 6 t r t     ",
"        < ; 6 q       q 5 6 6 6 6 6 6 6 6 6 6 6 6 5 6 5 5 5 6 6 & = 6 6 6 6 6 6 6 6 6 6 6 6 6 6 6 6 6 6 q       r 6 = u         ",
"          r r t       q 6 6 , : $ - $ - * $ : * 7 5 6 z F D F F F z 8 & q > - > r t r t r r t r r r r r s       r t t           ",
"                      q 6 6 # . . . . . . . . X q 5 8 G U U U U U H 8 6 q O . .                                                 ",
"                      w w w >     o @ + + @ + $ q 6 8 D G G G G G F 8 5 q > + #                                                 ",
"                                    6 6 = = = 6 5 6 5 6 5 5 6 6 6 6 5 5 & = 6 =                                                 ",
"                                  r 6 6 0 f x x x x f x x x x x x x x x f x x d g                                               ",
"                      q = 6 q = 7 = 6 5 c 1.4.4.4.4.4.4.4.4.4.4.4.4.4.4.4.4.5.<.c = = = q 6 0 6 = w                             ",
"                      r e e 6 6 6 6 e w B 5.y.y.y.y.y.y.y.y.y.y.y.y.y.y.y.y.y.6.B e e 6 6 6 6 w e p                             ",
"                , = e W ,.,.Z 6 6 N ,.,.1.8.y.y.y.y.y.y.y.y.y.y.y.9.9.y.y.y.9.8.1.,.,.V 5 5 B ,.,.~ 3 = 3                       ",
"                = = e >.y.8.Y 5 5 Z e.y.y.y.y.y.r.y.y.y.e.t.y.e.e.y.e.e.t.y.y.y.y.y.y.S 6 5 A e.y.,.t 6 q                       ",
"          = = 4 W _ ) S C C f 6 = M %.;.;.:.;.;.:.:.;.;.:.:.:.:.;.;.;.;.;.*.;.;.;.;.;.$. . .{ Z Z A / ` W a * ,                 ",
"        > 7 = d 4.y.6.v % & 5 5 & m X.o.o.#.o.o.o.o.o.o.O.o.o.o.#.o.#.#.o.o.o.o.o.o.o.+.#.#.| 6 5 c 5.y.3.x 5 7                 ",
"        > 6 = f 4.y.6.n & 6 N E Y ( &.&.&.&.&.&.&.&.&.&.*.&.&.&.&.&.&.&.&.&.&.&.&.*.*.*.&.*...6 5 v 5.y.3.c 6 6                 ",
"        < = = f 4.y.6.n = = ! y.y.9.9.9.8.9.9.9.9.9.9.9.9.9.9.9.8.9.9.9.9.9.9.9.r.r.y.9.9.9./ 7 5 v 5.y.4.c 5 q                 ",
"        > ; 6 p ) ' _ f 5 6 T 0.w.w.w.q.w.w.w.0.w.w.0.w.0.0.0.&.0.&.0.0.0.0.0.0.w.w.w.q.w.w.R 6 5 a / >./ a 5 6                 ",
"        2 6 6 6 = 0 6 6 6 6 ] O.O.O.O.O.O.O.O.O.O.O.O.O.=.O.@.@.=.O.O.O.O.O.O.O.@.O.O.O.@.@.| 6 6 6 6 6 6 6 = q                 ",
"        1 6 = 8 i h h 8 6 6 [ -.=.=.=.=.=.=.=.=.=.=.=.=.=.-.=.=.=.=.=.=.-.=.=.=.=.=.=.=.=.-.} 6 5 8 h h h 6 5 7                 ",
"        2 7 = 9 J I P k = 6 Q t.t.t.t.t.t.t.t.t.t.t.t.t.t.t.t.t.t.t.t.t.t.t.t.t.t.t.t.t.t.t.^ 7 = h L I L i & 0                 ",
"        2 q = i J I P k & 6 ! y.y.y.y.y.y.y.9.y.y.y.y.9.9.y.9.y.8.y.9.y.y.y.y.y.y.y.y.y.y.y./ 6 & h L I L h & ;                 ",
"        2 6 6 8 h h h 8 6 6 ! y.y.y.y.y.y.y.r.8.y.r.y.y.y.y.y.9.y.y.y.y.y.y.y.y.y.y.y.y.y.y./ 6 5 8 h j h 8 6 6                 ",
"        > 7 6 6 = = 6 6 5 6 ! y.y.y.y.y.y.y.y.y.9.y.y.8.e.e.7.e.8.8.r.8.r.r.y.y.y.y.y.y.y.y./ 6 6 6 = = 6 6 6 0                 ",
"          > > > > 1 , q 6 6 ! y.y.y.y.y.t.y.y.y.y.y.7.~ V V V V C V C V S 5.y.y.y.y.y.8.y.y.) 6 5 e r > > * > >                 ",
"                      q 5 6 ! y.y.y.y.y.y.y.y.y.r.y.6.B 5 5 6 5 & 5 5 & f 2.y.y.y.y.y.y.y.y.) 6 6 w                             ",
"                      , 6 6 ! y.y.y.y.y.y.y.y.y.y.y.7.V 5 5 6 ; 6 w 6 6 x 2.y.y.y.y.y.y.y.y./ 6 5 w                             ",
"                      q 6 6 ! y.y.y.y.y.y.y.y.y.y.y.r.V 5 5 ,       q & x 3.y.y.y.y.y.y.y.y./ 6 5 w                             ",
"                      q 6 6 C ` ' ` ` ` ` ` ' ` ` ' _ v 5 & ,       q 5 p ^ ` ` ' ` ` ' ` ` A 6 6 w                             ",
"                      = 6 6 6 6 6 6 6 q 6 6 6 6 6 6 6 6 6 6 -       7 6 6 6 6 6 6 6 6 6 0 6 6 6 6 r                             ",
"                      , = = 6 q 7 7 6 6 6 6 6 6 6 6 5 6 6 5 >       q 6 6 6 6 6 6 6 6 = 7 7 = , 6 w                             ",
"                                    6 6 6 6 6 6 6 6 6 6 6 = =       q 6 6 6 6 6 6 6 = t                                         ",
"                                    6 6 6 6 6 6 5 6 6 6 6 5 *       7 = 5 6 5 6 6 6 5 y                                         ",
"                            1 q q 6 6 6 6 6 6 6 6 6 6 6 6 = *       q = 6 6 6 6 6 6 6 6 q q q q q t                             ",
"                            > 6 = = = 6 5 6 6 6 = = 5 6 = & *       7 = = & 6 6 6 & 6 6 & = 6 6 = w                             ",
"                              , 1 , 1 , 3 , 3 , 3 r 3 e , 1         r 3 3 r 1 r , 1 1 1 1 , 3 3 3 3                             "
};
