/* XPM */
static char *wall1675519385[] = {
/* columns rows colors chars-per-pixel */
"64 64 60 1 ",
"  c #030D16",
". c #050F19",
"X c #06121C",
"o c #09141E",
"O c #071622",
"+ c #091621",
"@ c #071925",
"# c #0A1925",
"$ c #071B2B",
"% c #0B1D2B",
"& c #101F2D",
"* c #0B1F30",
"= c #0D202E",
"- c #11212F",
"; c #0D2233",
": c #0E2639",
"> c #0F293D",
", c #122433",
"< c #152837",
"1 c #122739",
"2 c #132A3C",
"3 c #192E3E",
"4 c #1A303F",
"5 c #0F2B40",
"6 c #122D42",
"7 c #192F41",
"8 c #163145",
"9 c #1B3245",
"0 c #173348",
"q c #1C364B",
"w c #1F394D",
"e c #1E3B51",
"r c #203445",
"t c #203749",
"y c #203A4F",
"u c #213C51",
"i c #223F59",
"p c #254056",
"a c #294257",
"s c #26425A",
"d c #29455D",
"f c #2D485F",
"g c #264760",
"h c #294761",
"j c #2D4B64",
"k c #2F4E68",
"l c #304E66",
"z c #314F69",
"x c #2F506B",
"c c #33526C",
"v c #365671",
"b c #385772",
"n c #375874",
"m c #395A75",
"M c #375B78",
"N c #3B5D7A",
"B c #3E617E",
"V c #40627F",
"C c #3F6381",
"Z c #416381",
/* pixels */
"#%>*X%:%>;%#+:2>>;==:>>q2;8uyemm#=8uwuwywwzn9=6qwuwwdC7+;:6#+*15",
"%&,#&=-+%;%##,%*1%#o-;%=#o2wywzm=>wwuwyywwqcuo>quwyyqNr#-%%+#&,%",
"NNm3kNNdamNNNNjcNNcjNNlc3o:8ywMv=2yyuwyuwpqjz#>9yyuwaB9dBmjimmNz",
"zdN,2ikMndssdbNbsdMBksNZ3$8qqjBv=>8uwyywwwuBl%>2wyqpmn1;sscNjijN",
"yuN,%8wpiqyywywwwwpjwqsB3:8ywdBn#%>quyyywwpBjX;5wuwaBj=#8yujytwd",
"qzZ1;28wyuyyqwuuqq8wuqwB9;qwqwjM#;qyyyeywwwcc%69yyywxC4;6q8qyyqq",
"*qx,@1>57866*608>;>88>2j3%56>80j=2qyyyyyypqjz%0uyyywpB9%55>606;6",
"XX*@XX%=+%+++**;=o%;;#%1#X;;%X$==>8uyyyyywwvz@6wyyyyqNr %;O@;OX%",
",jdddl3Xo+++XXXXooooooooX+oX1aaa%;8qwyyuuwpBlX;quuyuyM9yju3wffa<",
"%gmBcmNuX,q2*##&o%%ooooo+o+o2ijm#=6wuq8888ymzX>80qw0kN,qcbcBvNZx",
"%2ecaqzV7zlqw79t,,3299=#+o+o%>6j;>5225;;5:20s%2:26166i3%9ucswejC",
"@2wuuyymkcuyuq6y96eyyyyy3+ooo@%3%;@XX=#+%oO=$o%X%%X%+%&#8wwwewjv",
"o;qeyyymkkuyyuqwuq9yyyyyu,X+ivzlzlccqacuwsccjfcczzd9y,.#%6yyyymj",
"%58uyyumumdqyyyuy1,86yyyu7+o6hcVBVMc9zBBBBCnjjcBNCCnBb,o#,uyyqdB",
"#>6uyydN9jeyywyu87q933qyuq#o:>0kjpup3uupefcuwqyudNmduNq%#yqyuyuc",
"X%>quyyNrzduyuywwwwqewy8qu&o%2yytwwy8qwwwqwwwuywqasqyNi:-7#2yuuk",
"o%20u0yNubcayquiddqyiai6y8;o#6yuwwyf28yyyyewuwywuquyjB93=O#o9yaB",
"#:>68>5dkbdidbmbcmbvbcbcmbj#+6qyewad9q9yyyyweyyuueyqkv=9>>;#9ucN",
"+oo%%#%%<tukkdt<<tlzsidldyp<%50yyyp8ww9quwppquuqyyyyev36>5>%7lZf",
"<zdlxja2za8wczld<kvkzzknjdf9;66yyywwyyyyyywfqqw8qyyyqjp:>>>=7inm",
"=epjkij,eMNcckZc;sjiduujddNa@66qywyyeuyyywyyt89quyyuqds55>>>=qdN",
"$:8w9am%;qdkq9js#;8uyqqyyqcu*>quuw868qqyuuw88j306uyqqcs8>>>>+1jZ",
"@>5888x=@8wwuwddo:88066886iw%66788>;>558886>8q:66665:qw98666;+,j",
".X;oOO=o;quyywjn+$#X$%*%X.%%X*%XO%XXX=;@X%%%1#%*%Xo%#%O<38;;9;.o",
"f92afda#;wyyyuNn<ju37ad,9jd7adj9,ffju3udsdd4<ujdfy<jdi9asjjywcfq",
"mBvBxkB,>8wyyycd%jVMvbCa1cnBNcmm1gcnVNZBsfBccZNcZn;hcNBNdsVCmcvC",
"smkpqsm->>9weqfc%>pvmqcf$8qld8sb=:6wkcsiwqsmvaiuNsO;8fmpwwildqus",
"ywwwwaB#;8680>ev#;8wyumuX;qwuqdN#%6wwytqywwyqwqcZuo%9yewweqywyyw",
"yyyuwnjoX@;=XO=;+%8uqdV3o2yyuubb#;>wuyuwweyyyuwaNc#:qywuyyeweyyy",
"yyq8wcc%9ppuuu99#*0uyubpX6qy8zNuo;qyyqwuwwyyyywuNc=8yew9qyyeywyu",
"8q>:8en=qxjpixnv-2wwyyiaO0s9qjBdo;qewqwquqquwyyqjs#6q02>668q668w",
";%oX=:8@;26>:22s%1euyqld$ey8uqkm#;8uwauqw9wyyuuyvjXO::$O%%O:;@@%",
"3%<94#Xo+++ooooOo;uywjZuX978ewjc##>8>qpd<7uuuq8qcv-999,=-,999334",
"NjbNB4q;+oX#=##oo;quwfVuX=qq8wNhoo>>>2>;o;8682::8s2vNZNbfmBNmNVZ",
"cNdabrNw93<8ww4o+;508>djX:6q68ec%.#=%oo#o#;=;$o#=#%>wjlnNxpeyyub",
"yaqim3cswewuye4#oo$Ooo%; X**O%;:#%#ooooooXXXXooooo#:qwqwaqwwyyyu",
"ywyjc;fcwq8qyw=.,pyyy<9uu9<uyy3-yi6;=-#=+#1<1oooooX#8ywuwuuwyyyy",
"qyyNj2xjqywqqp<##ammCNBmmBNBNZNjjcwwwwq99qwey76q,oo%8yuqywquuyyy",
">8qjciNpuscljy9%X#tufccwqxcuwhmnacwwqqwywy82yyqu9#o>688>86688euq",
"@;;:qiCcjcjNvMBpoo<uqwwyywwwuqdmfBcdffjmMjjiwajdxq@2;;O#;;;>>6;*",
"#+o,%,3,38098iww#X,uyyyyyyuyuqdMqwujda899rq4,<7axt%%#o&%##+=,,##",
"cecmmcsmx3vMsdmc#X,iyyyyywwyuwab<cbNc8ay4mbbsyjbmbmf91cjncwlmmNN",
"NNcsdmNzc$0cvccj&#&uyywywuyyyqbn=qcmNnZf;edzNNNksdmBl%qeaNmmhdsz",
"djwwtiiha=5qeykf8-#<wuuyuwyyyubu=>8psfNd@>qwjlewwyycN,>uqskwyqqu",
"8qwuyqqjf=8yyqjm;>=#%39yyyyyyumd%:0wwqcjX:quwqyyuuqdB-%8yuyy6yuu",
";>6q6:6ql=:9w60j16>:;=+<yyyywwzmO:8qwwcj %wyyuyywywuc-X168066606",
"o#,;%+;;#oo%>%#;,9>>>;##quyyuqsN#=>qwsN9#>0yyyyyyyuqk-X#+%,;%,%#",
"oooooXoXoooooXoX,e>6;Oo3uwyyywcmo=>qwsBu%56yyyyuyywuc&XooXooXoX+",
"%+oo#=%%%ooo%%oX,q2>5%<pwyuuwsmp#>qyyqcj*6qyyyyyywaNj9a%Oooo%%oo",
"82,%qwqq2:=-96=X,6>>5%<uyq99qsNs%6yyyqna$8uuuyyyywiMjaBe91#9tw1$",
"eywwuyyyepwyut%.,q>>6;%6<%1%%,9z;>quysB9+2quwyyywuqumsbmaq8uyuw8",
"yuuyyyq8qqqyyy#X-9q5;%@%%%;==% o%>8yyyctX:6yyywyyywdBiaNswuwqyyy",
"u3quwqyq88qwyy#o#=>>+##X#yuy3,9to#8ueqcj.%6euy6yyywcj7zcwuyq88yy",
"w72u9qywwpywyy=.7g2q6q8##pMNBxmB##2wwdBdO1q089wuwuwcs1Niw<9uyqqy",
"scw80wwsaqqeww4 9cqq8qu2O:6amcNv=:6wudmd*0ys780quuqdc9Nu6yzeqwue",
"NmmdmBmBMffBjdaO4Njupdew#%>wuycc%5668:dj%66s28:5qq6qbfmVhnNNjjbm",
"iqkaddsddjbkacM2-lbjlcdz,.1uywdaXo=:%o@=.O6r%*.=:;%%69yddwsbcvcs",
"-1dkwX8dq89jdpuji9,<ttt9#@2uyqhk-9,9<;-3r7,,-,t<,,%9r9#qkhi73ajd",
"icNCq#vNcjBNNMvBNBjnVmmB<%50ywnm,ccmBccBNNbk8,NMzdvnNN,pmNmnNZZN",
"Bmsmt%0pmmfwunCcudllaqeB7:28ydmh%:qijNvsyqnZyX2uzNhquz,%8scNNcji",
"jfqmt*6qiuqywusuywqqyuwN3:>0wjNao=>wwpwqyysZlX6eeiyyuB9X:wqaauqq",
"tqpBqX2wyyuyuwqwyyuuuqdC3%6qywlN%O8wuwyuyyuNlX%quqyucc<o2uuquuuu",
"wwxZt ,qyyyyyyuyyyyyyqzB,#quyyjc#;9uyyyyyyyzz+%6yyyumn<;58yyyyyy",
"wamCyX:6yyyyyyyyyyyytiMh%%8euuvw=>8uwyyyyyybi#>8yyyyiCr$66uwuyyy"
};
